<svg version="1.1" id="Layer_1" xmlns="http://www.w3.org/2000/svg" xmlns:xlink="http://www.w3.org/1999/xlink" x="0px" y="0px"
	 width="100%" viewBox="0 0 704 336" enable-background="new 0 0 704 336" xml:space="preserve">
<path fill="#FFFFFF" opacity="1.000000" stroke="none"
	d="
M595.468628,337.000000 
	C590.227173,335.145935 585.470825,333.247925 580.676147,331.452118 
	C577.052551,330.094940 576.291382,327.915741 578.122009,324.493042 
	C580.002686,320.976807 580.776794,316.336639 583.552917,313.964813 
	C587.096497,310.937347 590.699707,315.629913 594.402649,316.504883 
	C601.296753,318.133942 608.185425,318.851562 615.175781,317.537109 
	C624.752258,315.736359 630.666870,306.483551 629.239380,295.215881 
	C624.529480,298.231628 619.981262,301.233246 614.492859,302.313690 
	C592.648621,306.613892 574.769409,294.501160 571.310120,272.392578 
	C569.333862,259.761658 570.619629,247.426376 578.179871,236.470932 
	C588.388733,221.677444 610.340637,217.446060 625.349487,227.356064 
	C626.726929,228.265549 628.095337,229.188721 629.499084,230.126297 
	C632.227661,223.628815 632.227661,223.628815 640.191650,223.626938 
	C652.393921,223.624069 652.401672,223.624069 652.400391,235.576691 
	C652.398071,256.574188 652.562988,277.573700 652.324829,298.568604 
	C652.105469,317.906097 643.428772,329.393677 624.939758,335.741486 
	C624.152771,336.011658 623.389343,336.350311 622.307495,336.828522 
	C613.312439,337.000000 604.624817,337.000000 595.468628,337.000000 
M597.682983,276.693359 
	C602.653931,283.885651 609.816772,285.291687 617.572205,283.283386 
	C625.124939,281.327606 628.721069,275.640045 629.923645,267.996765 
	C630.538452,264.088867 630.125671,260.347900 629.517151,256.633514 
	C628.220581,248.720444 621.386108,242.998825 613.074646,242.386185 
	C605.250610,241.809494 598.282715,246.224716 595.736023,253.869003 
	C593.227478,261.399017 593.341431,268.908752 597.682983,276.693359 
z"/>
<path fill="#FFFFFF" opacity="1.000000" stroke="none"
	d="
M705.000000,170.531342 
	C701.505920,171.025574 698.007446,170.949860 694.518982,171.102753 
	C690.302734,171.287567 686.359985,171.207703 685.803528,165.912781 
	C684.081055,165.470703 683.290222,166.491379 682.357727,167.112854 
	C671.926331,174.065002 660.609741,173.985825 649.371704,170.263229 
	C639.119751,166.867264 633.624329,158.172440 633.685730,147.719788 
	C633.749329,136.903412 640.123962,127.708527 650.342834,123.937531 
	C658.965820,120.755440 668.015625,121.288391 676.982483,121.020393 
	C679.460510,120.946327 683.193298,122.541504 684.127014,119.442589 
	C685.068909,116.316849 683.336609,112.915672 680.791016,110.501854 
	C674.852966,104.871269 667.632446,105.780594 660.517029,106.918434 
	C656.897766,107.497200 653.588562,109.210976 650.375916,111.006798 
	C649.239502,111.642044 647.717834,112.879066 646.720764,111.898293 
	C643.090698,108.327637 641.093811,103.639305 639.897827,98.856277 
	C638.992920,95.236794 642.814453,94.479538 645.174927,93.222450 
	C656.948608,86.952370 669.517456,85.509102 682.467468,87.959709 
	C692.057800,89.774544 699.737549,94.721519 704.744629,103.788239 
	C705.000000,126.020897 705.000000,148.041794 705.000000,170.531342 
M677.396606,137.311295 
	C672.582153,137.201630 667.751831,137.110825 663.122070,138.693497 
	C659.932800,139.783752 657.694946,141.842407 657.356201,145.449539 
	C657.056030,148.645340 657.851929,151.331711 660.671021,153.230576 
	C668.728638,158.657928 680.989807,154.555496 684.077698,145.368011 
	C686.203918,139.041656 685.025024,137.389053 677.396606,137.311295 
z"/>
<path fill="#FFFFFF" opacity="1.000000" stroke="none"
	d="
M140.999542,76.654556 
	C180.844299,76.006805 219.707809,104.986626 225.093109,151.855057 
	C225.867508,158.594727 225.808990,165.508881 224.824615,172.304123 
	C224.107254,177.256149 224.687607,178.201935 229.491028,177.539078 
	C237.632889,176.415573 245.796631,176.834167 253.950150,176.810394 
	C261.820129,176.787445 265.134094,180.211044 265.140625,188.217834 
	C265.171844,226.550507 265.167206,264.883240 265.114685,303.215881 
	C265.104370,310.748108 261.528595,314.338257 254.099548,314.317444 
	C230.773865,314.252136 207.526611,315.923370 184.272644,317.405487 
	C177.478134,317.838562 170.717957,318.788635 163.929016,319.341858 
	C161.316223,319.554810 159.750092,321.143890 158.089676,322.800049 
	C147.100311,333.761200 132.365524,333.968903 121.945740,322.740326 
	C117.450851,317.896576 111.815193,319.023163 106.686424,318.506378 
	C79.854263,315.802612 52.941082,314.274323 25.952078,314.249908 
	C19.142076,314.243744 15.673556,310.430695 15.668206,303.517120 
	C15.638284,264.850952 15.638259,226.184799 15.665757,187.518677 
	C15.670724,180.533768 19.014975,176.990036 26.013151,176.899979 
	C34.501846,176.790726 42.992889,176.616608 51.477100,177.575287 
	C57.530941,178.259338 57.572411,177.839447 56.927017,171.827820 
	C51.522148,121.483185 86.352562,83.516647 127.587273,77.493195 
	C131.912598,76.861366 136.186783,76.708794 140.999542,76.654556 
M113.764816,96.294815 
	C106.356842,99.487869 99.501091,103.619202 93.704750,109.227852 
	C75.054840,127.273872 68.406746,149.273773 72.335739,174.759888 
	C72.937157,178.661118 75.143150,180.032806 78.588058,180.521317 
	C99.751488,183.522552 119.783119,189.773560 137.922836,201.369492 
	C139.662186,202.481369 141.144791,202.657654 142.961456,201.500778 
	C161.420059,189.746094 181.875076,183.660553 203.324829,180.531662 
	C207.238785,179.960724 209.156601,178.015198 209.589371,174.161087 
	C210.463242,166.378387 210.932602,158.686401 209.888870,150.798248 
	C203.974045,106.095993 156.296890,78.606873 113.764816,96.294815 
M147.348419,277.499969 
	C147.348419,287.591064 147.348419,297.682190 147.348419,307.554596 
	C149.226807,308.227051 150.273041,307.609253 151.334930,307.202240 
	C181.567902,295.614594 212.623779,288.398682 245.246506,289.742493 
	C249.430511,289.914825 249.704498,287.703583 249.697296,284.471069 
	C249.632141,255.174271 249.588745,225.876862 249.743652,196.580719 
	C249.765869,192.379059 248.390289,191.119278 244.293701,191.250778 
	C229.657364,191.720657 215.123367,193.228851 200.698441,195.573914 
	C183.523529,198.366058 166.929977,202.960083 152.122574,212.694214 
	C148.697769,214.945633 147.196960,217.363693 147.248245,221.569321 
	C147.471512,239.877228 147.347351,258.189362 147.348419,277.499969 
M31.094624,198.639832 
	C31.099096,227.115616 31.147709,255.591522 31.055292,284.066986 
	C31.042965,287.864868 31.724487,289.916595 36.241859,289.750732 
	C67.833611,288.590973 97.985138,295.380219 127.309097,306.608063 
	C128.888885,307.212952 130.513687,308.545807 132.608276,307.313568 
	C132.694901,306.556122 132.868607,305.744934 132.868729,304.933716 
	C132.872742,276.457977 132.831955,247.982193 132.894272,219.506622 
	C132.900528,216.643829 131.725128,214.892288 129.429184,213.407532 
	C123.541412,209.599945 117.484467,206.129379 110.923447,203.622833 
	C87.276512,194.588913 62.418312,192.815048 37.498642,191.254715 
	C32.364655,190.933243 30.368418,192.690903 31.094624,198.639832 
z"/>
<path fill="#FFFFFF" opacity="1.000000" stroke="none"
	d="
M406.664032,304.020355 
	C396.329041,306.954773 386.133728,306.124542 376.003479,306.180847 
	C368.010010,306.225281 360.015320,306.101990 352.022552,306.186737 
	C348.265625,306.226562 346.627960,304.727356 346.636383,300.840485 
	C346.707825,267.866180 346.685272,234.891632 346.647186,201.917206 
	C346.643860,199.052643 347.314636,196.793655 350.643341,196.858109 
	C366.770874,197.170303 382.949371,195.570297 399.017975,197.745926 
	C405.688568,198.649078 411.687195,201.506302 417.075775,205.706833 
	C428.779663,214.830307 431.268738,237.453232 415.173676,248.202194 
	C417.521332,249.876190 419.923523,251.302063 421.991150,253.110428 
	C434.564148,264.106659 434.069855,285.719971 421.064087,296.416962 
	C416.896973,299.844330 412.171875,302.244354 406.664032,304.020355 
M405.869080,268.650879 
	C404.681915,262.863220 400.145691,260.889496 395.227905,260.542389 
	C387.784760,260.017059 380.280121,260.377899 372.801910,260.324158 
	C370.595856,260.308319 369.353333,261.139587 369.364624,263.515594 
	C369.394653,269.830963 369.394623,276.146759 369.355713,282.462036 
	C369.341980,284.690704 370.263031,285.944092 372.570831,285.919739 
	C379.713074,285.844330 386.907654,286.257965 393.983948,285.529785 
	C402.909637,284.611298 407.346191,278.156647 405.869080,268.650879 
M395.965424,218.253235 
	C388.139374,215.981812 380.147736,217.166077 372.217712,217.152451 
	C369.778778,217.148254 369.333038,218.899033 369.343201,220.936966 
	C369.371399,226.583328 369.398712,232.230301 369.340088,237.876160 
	C369.315155,240.275925 370.104919,241.662521 372.747711,241.633682 
	C378.559296,241.570221 384.386505,241.847305 390.180023,241.512222 
	C396.440186,241.150146 401.604767,237.142075 402.670898,232.482697 
	C404.054932,226.434021 402.285736,222.295990 395.965424,218.253235 
z"/>
<path fill="#FFFFFF" opacity="1.000000" stroke="none"
	d="
M433.973724,79.994156 
	C434.283997,85.242599 433.347809,90.067551 434.751953,95.474312 
	C440.377563,91.148560 446.056244,88.190559 452.864105,87.291779 
	C470.157043,85.008774 483.811127,95.142303 486.380066,112.426453 
	C487.787140,121.893501 486.999542,131.381836 487.156921,140.859558 
	C487.292450,149.022522 487.091187,157.190872 487.204285,165.354538 
	C487.259918,169.370789 485.561401,171.187500 481.535126,171.070236 
	C477.539154,170.953857 473.536133,170.964645 469.538696,171.045364 
	C465.371857,171.129532 463.581238,169.382996 463.639618,165.039429 
	C463.814423,152.043869 463.732910,139.044281 463.670654,126.046646 
	C463.659576,123.734543 463.496094,121.372452 462.999481,119.122505 
	C461.220184,111.060799 456.163177,107.459969 447.811584,108.082054 
	C440.100891,108.656395 434.496490,113.744751 434.280518,121.453705 
	C433.893280,135.274094 434.054169,149.109802 433.980682,162.939087 
	C433.939117,170.756378 433.683624,171.008881 425.772980,171.063568 
	C423.106903,171.081985 420.440613,171.073532 417.774414,171.076019 
	C410.805237,171.082520 409.964447,170.271500 409.965942,163.404510 
	C409.969788,145.740829 409.990112,128.077164 410.000793,110.413483 
	C410.010254,94.749367 409.978088,79.085106 410.039948,63.421204 
	C410.067352,56.481812 410.878082,55.764427 417.859985,55.738926 
	C421.026093,55.727360 424.192780,55.710289 427.358368,55.755001 
	C433.127716,55.836494 433.852966,56.533474 433.943634,62.499226 
	C434.029694,68.163628 433.969604,73.830254 433.973724,79.994156 
z"/>
<path fill="#FFFFFF" opacity="1.000000" stroke="none"
	d="
M539.665405,226.067963 
	C563.906433,237.320755 568.698425,269.294952 556.394287,289.064667 
	C543.725281,309.420563 514.275940,314.499115 494.342346,299.802490 
	C480.963196,289.938324 475.224670,270.378326 480.284180,251.885117 
	C484.903870,234.999496 497.713348,224.471756 515.436707,222.534195 
	C523.759094,221.624374 531.648560,222.727753 539.665405,226.067963 
M502.286316,268.189484 
	C502.350250,271.909729 503.230377,275.431885 504.939087,278.730865 
	C508.376038,285.366272 513.906982,288.035645 521.294922,287.892792 
	C528.586975,287.751709 533.877930,284.612335 536.713440,278.071655 
	C540.770447,268.713470 540.563599,259.218323 535.511841,250.260162 
	C529.316406,239.273834 512.461792,239.235718 505.865662,249.995331 
	C502.594421,255.331390 501.890778,261.192749 502.286316,268.189484 
z"/>
<path fill="#FFFFFF" opacity="1.000000" stroke="none"
	d="
M622.334656,122.061783 
	C622.331543,136.549988 622.343689,150.547089 622.315491,164.544113 
	C622.303528,170.501740 621.768616,171.005920 615.688843,171.068497 
	C612.189941,171.104507 608.688538,171.010010 605.191711,171.103561 
	C601.240967,171.209244 599.526550,169.609344 599.589844,165.448257 
	C599.772339,153.453568 599.646118,141.454254 599.653870,129.456757 
	C599.655701,126.623833 599.463562,123.841888 598.924927,121.027733 
	C597.011719,111.030418 592.197998,107.172958 582.350525,108.068077 
	C574.500793,108.781593 569.420898,114.738693 569.357666,123.626274 
	C569.261658,137.122849 569.326294,150.620499 569.298279,164.117630 
	C569.284973,170.528366 568.780823,171.032211 562.575623,171.044815 
	C558.743225,171.052597 554.910583,171.000778 551.078186,171.013443 
	C547.427490,171.025482 545.636963,169.499222 545.650452,165.591064 
	C545.732056,141.929657 545.729126,118.267624 545.631958,94.606293 
	C545.616821,90.913986 547.072937,89.496399 550.679871,89.648727 
	C554.505432,89.810310 558.355713,89.873055 562.172546,89.627190 
	C566.446533,89.351868 569.134094,90.456055 568.377747,95.211708 
	C569.793640,96.122925 570.513794,95.156647 571.221191,94.597504 
	C582.229431,85.896309 594.395691,84.464218 606.822632,90.351913 
	C618.847351,96.049049 621.800659,107.356644 622.324219,119.571205 
	C622.352722,120.236603 622.331604,120.904129 622.334656,122.061783 
z"/>
<path fill="#FFFFFF" opacity="1.000000" stroke="none"
	d="
M386.977051,81.988556 
	C382.984528,81.973335 379.477051,82.109192 375.990540,81.898331 
	C371.782715,81.643860 370.158356,83.123520 370.190796,87.607292 
	C370.372894,112.760246 370.274078,137.915283 370.260376,163.069595 
	C370.256287,170.581909 369.848297,170.994049 362.387604,171.056564 
	C359.056274,171.084473 355.712494,170.861465 352.395599,171.077805 
	C348.054321,171.360916 346.547607,169.558136 346.576416,165.243210 
	C346.722076,143.421524 346.650177,121.598381 346.653015,99.775742 
	C346.653564,95.611122 346.498596,91.439743 346.687469,87.283852 
	C346.862518,83.432198 345.313202,81.828827 341.436981,81.923607 
	C334.943878,82.082375 328.443512,82.055420 321.947998,81.969543 
	C315.936523,81.890068 314.961945,80.954208 314.998291,74.912163 
	C315.098755,58.202194 313.121307,60.719872 328.759644,60.634037 
	C350.581604,60.514256 372.406250,60.719841 394.225891,60.462177 
	C399.144196,60.404099 400.870270,62.020683 400.392365,66.755913 
	C400.126038,69.394577 400.348663,72.081863 400.337952,74.747185 
	C400.310211,81.654221 399.922668,82.034706 392.968384,82.015778 
	C391.136047,82.010796 389.303711,81.996208 386.977051,81.988556 
z"/>
<path fill="#FFFFFF" opacity="1.000000" stroke="none"
	d="
M444.109070,221.999786 
	C444.093323,214.178894 444.008240,206.857330 444.076202,199.537201 
	C444.129272,193.819611 445.012451,193.022156 450.847198,192.926575 
	C453.674927,192.880234 456.504242,192.908234 459.332672,192.928284 
	C467.016693,192.982773 467.298981,193.244003 467.302124,200.718826 
	C467.311310,222.682022 467.305603,244.645203 467.299561,266.608398 
	C467.296478,277.756348 467.116333,288.907715 467.346283,300.050690 
	C467.445831,304.875427 465.622375,306.678680 460.893402,306.350769 
	C456.918701,306.075165 452.910248,306.236511 448.917664,306.282013 
	C445.505707,306.320892 444.066437,304.542175 444.180847,301.314697 
	C445.112427,275.041840 444.306458,248.771149 444.109070,221.999786 
z"/>
<path fill="#FFFFFF" opacity="1.000000" stroke="none"
	d="
M503.794434,139.999969 
	C503.799133,125.028290 503.920837,110.555161 503.740448,96.085800 
	C503.682770,91.457542 505.120575,89.283081 510.027405,89.632217 
	C514.164856,89.926605 518.343140,89.788109 522.497620,89.657715 
	C525.821594,89.553391 527.367493,90.819496 527.358521,94.293625 
	C527.296692,118.246521 527.302246,142.199707 527.349426,166.152664 
	C527.356018,169.468933 525.997314,171.121353 522.631958,171.092896 
	C518.141174,171.054886 513.649963,171.076309 509.158936,171.067902 
	C505.420227,171.060898 503.774078,169.141968 503.796570,165.450943 
	C503.847290,157.134262 503.801117,148.817001 503.794434,139.999969 
z"/>
<path fill="#FFFFFF" opacity="1.000000" stroke="none"
	d="
M148.168701,43.998222 
	C148.149109,48.988903 148.260666,53.485798 148.077301,57.970634 
	C147.866180,63.133766 144.979965,66.202629 140.633072,66.260895 
	C136.292252,66.319061 133.087708,63.234718 132.994080,58.173943 
	C132.803360,47.863865 132.860321,37.547340 132.954041,27.234735 
	C132.995438,22.678202 135.643707,20.185696 140.074677,19.785913 
	C144.102448,19.422508 147.481003,22.111706 147.843445,26.548870 
	C148.302612,32.170322 148.091537,37.846516 148.168701,43.998222 
z"/>
<path fill="#FFFFFF" opacity="1.000000" stroke="none"
	d="
M82.219376,83.282471 
	C79.090286,82.900391 77.395363,81.084389 75.892761,79.038315 
	C70.271782,71.384293 64.603607,63.763557 59.086739,56.034969 
	C55.853977,51.506184 56.143288,47.672508 59.580158,44.968170 
	C62.838200,42.404549 67.981499,43.247650 70.992546,47.207710 
	C76.940956,55.030903 82.841156,62.899487 88.480232,70.946259 
	C92.634468,76.874207 89.935249,82.265450 82.219376,83.282471 
z"/>
<path fill="#FFFFFF" opacity="1.000000" stroke="none"
	d="
M201.509964,57.548180 
	C204.172028,53.904713 206.550659,50.494907 209.114761,47.230804 
	C212.242264,43.249477 216.919525,42.493576 220.446671,45.222237 
	C223.825317,47.836018 224.253098,51.539822 221.266876,55.770290 
	C215.520645,63.910809 209.686203,71.992638 203.717621,79.971085 
	C200.863953,83.785683 196.686493,84.418335 193.221069,82.012466 
	C189.384033,79.348595 188.772430,75.569489 191.739594,71.210136 
	C194.821518,66.682198 198.110382,62.295116 201.509964,57.548180 
z"/>
<path fill="#FFFFFF" opacity="1.000000" stroke="none"
	d="
M270.783813,107.763657 
	C272.278473,113.324196 269.842255,116.413185 265.226227,118.209190 
	C256.699860,121.526634 248.186218,124.880302 239.611328,128.068375 
	C234.179230,130.087982 230.126221,128.529861 228.435867,124.088242 
	C226.844406,119.906502 228.872711,116.570572 234.375046,114.399910 
	C242.885132,111.042709 251.421631,107.751671 259.912872,104.347626 
	C264.334259,102.575134 268.044067,102.869965 270.783813,107.763657 
z"/>
<path fill="#FFFFFF" opacity="1.000000" stroke="none"
	d="
M45.492893,113.345337 
	C46.755550,113.896484 47.696579,114.239502 48.584316,114.687996 
	C53.104832,116.971840 54.839695,120.469025 53.390068,124.305809 
	C51.885887,128.286972 47.871933,129.923294 43.004177,128.097687 
	C33.981174,124.713669 25.015667,121.169838 16.089029,117.538162 
	C11.564740,115.697525 9.760751,111.860535 11.263881,108.067566 
	C12.913585,103.904747 16.781645,102.101723 21.503365,103.850204 
	C29.447477,106.791954 37.271908,110.056885 45.492893,113.345337 
z"/>
<path fill="#FFFFFF" opacity="1.000000" stroke="none"
	d="
M502.685425,68.079597 
	C503.899536,59.773403 509.261139,55.129963 516.461792,55.725643 
	C523.179199,56.281349 528.450928,62.096443 528.296814,68.780701 
	C528.135742,75.771210 522.934265,81.100487 516.066650,81.311432 
	C508.326019,81.549202 503.364410,76.803116 502.685425,68.079597 
z"/>
<path fill="#FFFFFF" opacity="1.000000" stroke="none"
	d="
M229.512848,228.930725 
	C218.022522,231.153656 206.652847,231.445694 195.603607,234.066116 
	C187.328766,236.028580 179.104340,238.054626 171.198990,241.270157 
	C166.229614,243.291473 162.484879,242.071548 161.070557,238.300644 
	C159.708023,234.667923 161.442520,231.581924 166.242416,229.542404 
	C181.369949,223.114548 197.301178,219.836700 213.508667,217.722839 
	C217.295670,217.228928 221.117752,216.978470 224.930542,216.715469 
	C228.092102,216.497391 230.976059,217.015335 232.375046,220.411148 
	C233.795197,223.858353 232.680923,226.560684 229.512848,228.930725 
z"/>
<path fill="#FFFFFF" opacity="1.000000" stroke="none"
	d="
M160.971893,266.562805 
	C160.308823,262.260468 162.250244,260.006104 165.661240,258.435974 
	C184.477127,249.774963 204.478836,246.009155 224.905060,244.067749 
	C229.762100,243.606094 232.801239,246.156754 233.010818,250.154831 
	C233.219589,254.137115 230.607986,256.767426 225.626022,257.157379 
	C206.463715,258.657227 187.908508,262.677094 170.177963,270.223480 
	C166.129898,271.946411 163.062088,270.977905 160.971893,266.562805 
z"/>
<path fill="#FFFFFF" opacity="1.000000" stroke="none"
	d="
M109.137665,241.183350 
	C93.206795,234.686752 76.835594,232.014511 60.252254,230.295029 
	C57.939285,230.055206 55.636459,229.710739 53.321007,229.503159 
	C48.911068,229.107788 47.249893,226.543686 47.613945,222.376190 
	C47.979065,218.196411 50.694649,216.636398 54.463451,216.745224 
	C67.132324,217.111038 79.554527,219.268982 91.830536,222.293808 
	C99.420235,224.163940 106.949974,226.269058 114.110420,229.481079 
	C118.845131,231.604950 120.486061,234.535675 119.170258,238.351334 
	C117.976479,241.813156 114.538483,242.874054 109.137665,241.183350 
z"/>
<path fill="#FFFFFF" opacity="1.000000" stroke="none"
	d="
M116.461014,259.437012 
	C119.997612,262.069305 120.478592,265.154327 118.323341,268.367462 
	C116.243591,271.468048 113.219254,271.711304 109.928429,270.192444 
	C92.799416,262.286774 74.608604,258.794495 55.952393,257.240753 
	C54.961586,257.158264 53.975174,256.977539 52.997948,256.785431 
	C48.783310,255.956909 47.204369,253.298584 47.727310,249.171173 
	C48.244846,245.086441 51.288445,243.841949 54.568157,244.136963 
	C75.842224,246.050568 96.833641,249.263428 116.461014,259.437012 
z"/>
</svg>
