<?xml version="1.0" encoding="UTF-8"?>
<svg version="1.1" xmlns="http://www.w3.org/2000/svg" width="285" height="316">
<path d="M0 0 C2.74870777 2.17814851 5.33860422 4.4481546 7.91015625 6.83203125 C8.7609375 7.59128906 9.61171875 8.35054687 10.48828125 9.1328125 C26.15853959 23.81767116 34.66087533 43.9409206 35.59765625 65.26953125 C35.6584436 66.50860229 35.6584436 66.50860229 35.72045898 67.77270508 C35.96257837 73.56249173 35.75764087 79.08796882 34.91015625 84.83203125 C37.90571275 86.3298095 40.59473769 85.86790928 43.9296875 85.7890625 C45.35870995 85.76666597 46.78774742 85.74521148 48.21679688 85.72460938 C50.46859294 85.68757406 52.71962334 85.64461128 54.97094727 85.58520508 C57.14480511 85.53051833 59.31781163 85.50156542 61.4921875 85.4765625 C63.44475464 85.43559448 63.44475464 85.43559448 65.43676758 85.39379883 C69.4763946 85.90347272 71.06580389 86.98238522 73.91015625 89.83203125 C75.15538972 92.32249818 75.04152164 93.99717632 75.05059814 96.78437805 C75.05630829 97.83167084 75.06201843 98.87896362 75.06790161 99.95799255 C75.0695784 101.68868736 75.0695784 101.68868736 75.07128906 103.4543457 C75.07625397 104.66580261 75.08121887 105.87725952 75.08633423 107.12542725 C75.09845621 110.45406689 75.10590464 113.7826436 75.11034489 117.11129785 C75.11327491 119.19081599 75.11737962 121.27032861 75.12184906 123.34984398 C75.13552663 129.85585706 75.14519165 136.36185752 75.14905095 142.86788398 C75.15353058 150.37853048 75.17107278 157.88899489 75.20005155 165.39958602 C75.22167098 171.20433116 75.23175539 177.00902508 75.23309207 182.81381005 C75.23414005 186.28095158 75.24004588 189.74792199 75.25791168 193.21502113 C75.27745953 197.08391818 75.27310232 200.95258793 75.26660156 204.8215332 C75.27581635 205.96925705 75.28503113 207.1169809 75.29452515 208.29948425 C75.28617142 209.88311264 75.28617142 209.88311264 75.27764893 211.49873352 C75.27911549 212.4133199 75.28058205 213.32790628 75.28209305 214.27020741 C74.82770271 217.39995419 73.76414595 219.28937771 71.91015625 221.83203125 C63.76109996 225.03991373 53.59699379 224.16749981 44.90597534 224.29562378 C40.81698626 224.35841632 36.7288603 224.45502446 32.640625 224.5546875 C31.81794632 224.57471329 30.99526764 224.59473907 30.1476593 224.6153717 C12.22873466 225.0861668 -5.65995449 226.52982332 -23.4765625 228.46484375 C-27.08984375 228.83203125 -27.08984375 228.83203125 -30.08984375 228.83203125 C-30.08984375 229.49203125 -30.08984375 230.15203125 -30.08984375 230.83203125 C-35.91214717 236.42989213 -41.3733622 239.39532 -49.46484375 240.14453125 C-56.1682904 239.56664792 -61.04853531 238.11127452 -65.83984375 233.26953125 C-69.1053858 230.20241476 -71.43305482 229.28981848 -75.859375 228.71484375 C-77.01614746 228.56297607 -78.17291992 228.4111084 -79.36474609 228.25463867 C-85.91396244 227.51163871 -92.46022127 226.82881589 -99.02734375 226.26953125 C-99.77543304 226.20411133 -100.52352234 226.13869141 -101.29428101 226.07128906 C-117.49080268 224.6828646 -133.69274779 224.38209289 -149.94311523 224.29858398 C-150.89880402 224.2883873 -151.8544928 224.27819061 -152.83914185 224.26768494 C-154.62695624 224.2487088 -156.41494733 224.24124351 -158.20285034 224.24781799 C-164.34753282 224.16972748 -169.55542658 223.36644842 -174.08984375 218.83203125 C-174.34711266 216.61649609 -174.34711266 216.61649609 -174.35726929 213.80375671 C-174.36579926 212.73963562 -174.37432922 211.67551453 -174.38311768 210.57914734 C-174.3822113 209.40664932 -174.38130493 208.23415131 -174.38037109 207.02612305 C-174.39044693 205.17967697 -174.39044693 205.17967697 -174.40072632 203.29592896 C-174.41650405 199.91351296 -174.42308345 196.53134245 -174.42435789 193.14890647 C-174.42625532 190.32593361 -174.43361131 187.5029844 -174.44070208 184.68002063 C-174.45700001 178.01852049 -174.46186988 171.35707442 -174.46044922 164.69555664 C-174.45924838 157.82450472 -174.48033517 150.95376722 -174.51193655 144.08279485 C-174.53809685 138.18462098 -174.54881658 132.28654979 -174.5475384 126.38831836 C-174.54702855 122.86524434 -174.55272338 119.34244945 -174.5738945 115.81943321 C-174.59687225 111.88820524 -174.58775739 107.95740726 -174.57568359 104.02612305 C-174.58692261 102.85969772 -174.59816162 101.6932724 -174.60974121 100.49150085 C-174.54803076 92.60145299 -174.54803076 92.60145299 -172.18447876 88.63240051 C-168.43953691 85.41356852 -165.89002556 85.70342574 -161 85.69921875 C-159.94950722 85.69778366 -159.94950722 85.69778366 -158.87779236 85.69631958 C-157.39582225 85.69563879 -155.91384915 85.69748606 -154.43188477 85.70166016 C-152.16480794 85.70700188 -149.89792996 85.70171596 -147.63085938 85.6953125 C-146.19140581 85.69597346 -144.75195237 85.69725498 -143.3125 85.69921875 C-142.00031494 85.70034668 -140.68812988 85.70147461 -139.33618164 85.70263672 C-136.08984375 85.83203125 -136.08984375 85.83203125 -133.08984375 86.83203125 C-133.33734375 85.19234375 -133.33734375 85.19234375 -133.58984375 83.51953125 C-136.58077051 58.63848831 -129.47447235 34.97997854 -114.90625 14.80859375 C-114.30683594 14.15632813 -113.70742187 13.5040625 -113.08984375 12.83203125 C-112.42984375 12.83203125 -111.76984375 12.83203125 -111.08984375 12.83203125 C-111.08984375 12.17203125 -111.08984375 11.51203125 -111.08984375 10.83203125 C-81.12016947 -17.74370469 -34.68657261 -24.33760784 0 0 Z M-103.08984375 23.83203125 C-105.79678805 27.32871746 -107.99728078 30.94059835 -110.08984375 34.83203125 C-110.63511719 35.82976562 -111.18039063 36.8275 -111.7421875 37.85546875 C-119.56385849 53.34581962 -120.79542963 69.98108232 -117.08984375 86.83203125 C-116.75984375 87.49203125 -116.42984375 88.15203125 -116.08984375 88.83203125 C-114.26074407 89.35803569 -114.26074407 89.35803569 -112.0234375 89.62109375 C-111.15726807 89.75354492 -110.29109863 89.88599609 -109.39868164 90.02246094 C-108.45114014 90.16586914 -107.50359863 90.30927734 -106.52734375 90.45703125 C-87.66948155 93.62046599 -68.21162275 99.40261366 -52.5078125 110.6875 C-50.16070861 112.10443211 -50.16070861 112.10443211 -47.73828125 111.2890625 C-45.04135669 109.80535621 -42.36998763 108.28514822 -39.7253418 106.70996094 C-31.435722 101.80162018 -23.39456267 98.42157287 -14.08984375 95.83203125 C-13.32704102 95.61562988 -12.56423828 95.39922852 -11.77832031 95.17626953 C-3.00257421 92.70643822 5.71551947 90.45961004 14.7578125 89.19140625 C16.95245132 88.93330228 16.95245132 88.93330228 18.91015625 87.83203125 C23.70680356 67.9348276 19.52914324 48.64497012 9.91015625 30.83203125 C9.25015625 30.83203125 8.59015625 30.83203125 7.91015625 30.83203125 C7.69875 30.13722656 7.48734375 29.44242188 7.26953125 28.7265625 C1.58823125 16.62931164 -12.59982717 8.07988994 -24.58203125 3.49609375 C-53.31039743 -5.85887076 -82.42007454 1.87241685 -103.08984375 23.83203125 Z M-159.08984375 99.83203125 C-159.08984375 132.17203125 -159.08984375 164.51203125 -159.08984375 197.83203125 C-145.55984375 198.82203125 -132.02984375 199.81203125 -118.08984375 200.83203125 C-94.91805231 205.46638954 -94.91805231 205.46638954 -87.58984375 207.64453125 C-86.47416016 207.95874023 -86.47416016 207.95874023 -85.3359375 208.27929688 C-79.05187996 210.10320626 -72.89508018 212.27748698 -66.72460938 214.44799805 C-65.79706848 214.77349388 -64.86952759 215.09898972 -63.91387939 215.43434906 C-61.63892905 216.2328061 -59.36426015 217.03205479 -57.08984375 217.83203125 C-56.69509417 205.74986115 -56.39348746 193.66923481 -56.20903683 181.58191872 C-56.12047934 175.96814137 -56.00052136 170.35878845 -55.80737305 164.74755859 C-55.62195192 159.32657291 -55.5208868 153.90982495 -55.47693062 148.48591232 C-55.44563458 146.42251181 -55.38450249 144.35933152 -55.29243279 142.29774857 C-54.47084881 131.45248968 -54.47084881 131.45248968 -58.75124931 121.98320389 C-63.3990921 118.29217996 -68.5934948 115.97217935 -74.08984375 113.83203125 C-75.12569611 113.37948975 -76.16154846 112.92694824 -77.22879028 112.46069336 C-79.55307794 111.47217361 -81.8606509 110.68786973 -84.27734375 109.95703125 C-85.15132813 109.68149414 -86.0253125 109.40595703 -86.92578125 109.12207031 C-101.70120544 104.64834166 -116.84321594 102.72787977 -132.15234375 101.08203125 C-133.34085938 100.9540918 -134.529375 100.82615234 -135.75390625 100.69433594 C-136.90761719 100.57993164 -138.06132812 100.46552734 -139.25 100.34765625 C-140.76025757 100.19731934 -140.76025757 100.19731934 -142.30102539 100.04394531 C-147.88901027 99.73140128 -153.49312517 99.83203125 -159.08984375 99.83203125 Z M40.1484375 100.3828125 C38.45424683 100.56239502 38.45424683 100.56239502 36.72583008 100.74560547 C34.99175903 100.94307373 34.99175903 100.94307373 33.22265625 101.14453125 C31.38900513 101.34973389 31.38900513 101.34973389 29.51831055 101.55908203 C10.51540135 103.74222968 -7.19348435 107.13632058 -25.02734375 114.20703125 C-25.68871338 114.46258789 -26.35008301 114.71814453 -27.03149414 114.98144531 C-29.1092831 115.84143417 -31.08480378 116.81296242 -33.08984375 117.83203125 C-33.93203461 118.2500148 -34.77422546 118.66799835 -35.64193726 119.09864807 C-39.60831951 121.40622512 -42.55802663 123.13780376 -43.9745636 127.6505127 C-44.26651653 131.14812857 -44.2402452 134.51620707 -44.1015625 138.0234375 C-44.0897847 139.31853745 -44.0780069 140.61363739 -44.06587219 141.94798279 C-44.03343377 145.40219812 -43.94047209 148.85222505 -43.83477783 152.30487061 C-43.74140491 155.70211669 -43.70642953 159.09983437 -43.66601562 162.49804688 C-43.55571283 170.61194803 -43.33887422 178.72132604 -43.08984375 186.83203125 C-43.06801277 187.54497093 -43.04618179 188.25791061 -43.02368927 188.99245453 C-42.7373725 198.27319751 -42.42504145 207.55291663 -42.08984375 216.83203125 C-40.34661407 216.36326856 -38.60386969 215.89270092 -36.86132812 215.42138672 C-35.89078491 215.15953583 -34.9202417 214.89768494 -33.92028809 214.62789917 C-30.08876336 213.5505462 -26.3466222 212.26670174 -22.58984375 210.95703125 C-16.18534724 208.77985756 -9.75270533 206.81922694 -3.21484375 205.08203125 C-2.47943359 204.88367676 -1.74402344 204.68532227 -0.98632812 204.48095703 C10.03704128 201.62241248 21.07952354 200.44838066 32.42016602 199.82666016 C34.60544862 199.70660315 36.7899837 199.57673692 38.97460938 199.4453125 C45.97441726 199.03810656 52.88737129 198.83203125 59.91015625 198.83203125 C59.91015625 166.16203125 59.91015625 133.49203125 59.91015625 99.83203125 C49.94002452 99.74822734 49.94002452 99.74822734 40.1484375 100.3828125 Z " fill="#44362A" transform="translate(189.08984375,76.16796875)"/>
<path d="M0 0 C1.94326172 0.02416992 1.94326172 0.02416992 3.92578125 0.04882812 C5.28907928 0.09060186 6.65236052 0.13292655 8.015625 0.17578125 C9.39449124 0.20087215 10.77340097 0.22368396 12.15234375 0.24414062 C15.52453856 0.30309508 18.89453241 0.38534954 22.265625 0.48828125 C22.265625 0.81828125 22.265625 1.14828125 22.265625 1.48828125 C9.890625 1.98328125 9.890625 1.98328125 -2.734375 2.48828125 C3.205625 2.48828125 9.145625 2.48828125 15.265625 2.48828125 C14.935625 3.80828125 14.605625 5.12828125 14.265625 6.48828125 C16.245625 7.14828125 18.225625 7.80828125 20.265625 8.48828125 C19.935625 9.14828125 19.605625 9.80828125 19.265625 10.48828125 C18.46125 10.46765625 17.656875 10.44703125 16.828125 10.42578125 C14.33207615 10.19194504 14.33207615 10.19194504 13.265625 11.48828125 C18.875625 11.81828125 24.485625 12.14828125 30.265625 12.48828125 C30.265625 12.81828125 30.265625 13.14828125 30.265625 13.48828125 C21.685625 13.48828125 13.105625 13.48828125 4.265625 13.48828125 C4.265625 45.82828125 4.265625 78.16828125 4.265625 111.48828125 C8.555625 111.48828125 12.845625 111.48828125 17.265625 111.48828125 C43.82233119 112.34377129 69.44420375 116.85139305 94.265625 126.48828125 C93.605625 128.79828125 92.945625 131.10828125 92.265625 133.48828125 C91.646875 133.55015625 91.028125 133.61203125 90.390625 133.67578125 C89.33875 134.07796875 89.33875 134.07796875 88.265625 134.48828125 C87.11230932 136.99633017 87.11230932 136.99633017 86.265625 139.48828125 C85.54881561 139.42736801 84.83200623 139.36645477 84.09347534 139.30369568 C63.47376445 137.59920061 43.09909336 137.32440977 22.40820312 137.60473633 C18.55078647 137.65288288 14.6935438 137.68276839 10.8359375 137.7109375 C9.0907634 137.74357445 9.0907634 137.74357445 7.31033325 137.77687073 C1.16225047 137.81466083 -3.34208657 137.54792969 -8.734375 134.48828125 C-11.28868958 131.93396667 -10.9889978 131.00554775 -11.00180054 127.46000671 C-11.01033051 126.39588562 -11.01886047 125.33176453 -11.02764893 124.23539734 C-11.02674255 123.06289932 -11.02583618 121.89040131 -11.02490234 120.68237305 C-11.03161957 119.451409 -11.03833679 118.22044495 -11.04525757 116.95217896 C-11.0610353 113.56976296 -11.0676147 110.18759245 -11.06888914 106.80515647 C-11.07078657 103.98218361 -11.07814256 101.1592344 -11.08523333 98.33627063 C-11.10153126 91.67477049 -11.10640113 85.01332442 -11.10498047 78.35180664 C-11.10377963 71.48075472 -11.12486642 64.61001722 -11.1564678 57.73904485 C-11.1826281 51.84087098 -11.19334783 45.94279979 -11.19206965 40.04456836 C-11.1915598 36.52149434 -11.19725463 32.99869945 -11.21842575 29.47568321 C-11.2414035 25.54445524 -11.23228864 21.61365726 -11.22021484 17.68237305 C-11.23145386 16.51594772 -11.24269287 15.3495224 -11.25427246 14.14775085 C-11.1928474 6.29419233 -11.1928474 6.29419233 -8.89877319 2.2616272 C-5.87138023 -0.2187921 -3.87846039 -0.08505396 0 0 Z " fill="#433528" transform="translate(25.734375,162.51171875)"/>
<path d="M0 0 C4.05656281 -0.1238616 8.11238978 -0.21445733 12.17041016 -0.2746582 C13.54983702 -0.2997593 14.92913142 -0.33384873 16.30810547 -0.37719727 C18.29335872 -0.43802875 20.27959359 -0.46357937 22.265625 -0.48828125 C24.05661621 -0.52755737 24.05661621 -0.52755737 25.88378906 -0.56762695 C29 0 29 0 31.16340637 1.78779602 C33.97881664 6.71195122 33.54889275 11.38451671 33.50170898 16.96289062 C33.50981346 18.78073311 33.50981346 18.78073311 33.51808167 20.63529968 C33.52843542 23.95171194 33.52087939 27.26712414 33.50437045 30.58344841 C33.49049739 34.05779277 33.49698259 37.53210765 33.50050354 41.00646973 C33.5032039 46.8404984 33.48974529 52.67432112 33.46655273 58.50830078 C33.43994393 65.24817063 33.43819646 71.9876962 33.4499411 78.72760057 C33.46072951 85.21763026 33.45452352 91.70753571 33.44038582 98.19755554 C33.43463519 100.95662888 33.43470139 103.71561102 33.43945122 106.47468567 C33.44512032 110.32895887 33.4258801 114.18288917 33.40405273 118.03710938 C33.40855438 119.18012009 33.41305603 120.3231308 33.41769409 121.5007782 C33.40778946 122.55219498 33.39788483 123.60361176 33.38768005 124.68688965 C33.38525016 125.59757957 33.38282026 126.5082695 33.38031673 127.44655609 C32.91575447 130.56562393 31.84565575 132.46229664 30 135 C21.05752547 138.56258969 9.2304242 137.4076979 -0.3125 137.5625 C-3.49620006 137.62159495 -6.67975792 137.68597641 -9.86328125 137.75390625 C-10.63912064 137.76991882 -11.41496002 137.7859314 -12.21430969 137.8024292 C-18.36578077 137.9458872 -24.47526331 138.33859684 -30.61254883 138.78393555 C-35.47438046 139.09404156 -40.31737481 139.14695398 -45.1875 139.125 C-46.53811523 139.13080078 -46.53811523 139.13080078 -47.91601562 139.13671875 C-48.78291016 139.13542969 -49.64980469 139.13414062 -50.54296875 139.1328125 C-51.30633545 139.13168457 -52.06970215 139.13055664 -52.85620117 139.12939453 C-55.01815542 138.99890418 -56.92150299 138.59368784 -59 138 C-58.649375 137.38125 -58.29875 136.7625 -57.9375 136.125 C-57.628125 135.42375 -57.31875 134.7225 -57 134 C-57.33 133.34 -57.66 132.68 -58 132 C-57.34 132 -56.68 132 -56 132 C-55.67 130.35 -55.34 128.7 -55 127 C-53.515 126.505 -53.515 126.505 -52 126 C-52 125.01 -52 124.02 -52 123 C-50.515 122.505 -50.515 122.505 -49 122 C-48.70867187 121.35289062 -48.41734375 120.70578125 -48.1171875 120.0390625 C-47 118 -47 118 -44.8203125 117.0234375 C-43.93085938 116.80945313 -43.04140625 116.59546875 -42.125 116.375 C-41.26132813 116.15585937 -40.39765625 115.93671875 -39.5078125 115.7109375 C-29.5256229 113.68782112 -19.64870003 112.52526982 -9.48999023 111.93969727 C-7.30439634 111.81202663 -5.12012693 111.66927049 -2.93554688 111.52539062 C-1.51567967 111.43919888 -0.09575902 111.35388196 1.32421875 111.26953125 C2.58322998 111.19323486 3.84224121 111.11693848 5.1394043 111.03833008 C9.43802601 110.99565104 13.72745923 111.52527325 18 112 C18 79.33 18 46.66 18 13 C10.41 13 2.82 13 -5 13 C-7 9 -7 9 -6.375 6.5 C-5 4 -5 4 -2.375 2.6875 C-1.59125 2.460625 -0.8075 2.23375 0 2 C0 1.34 0 0.68 0 0 Z " fill="#3D2F24" transform="translate(231,163)"/>
<path d="M0 0 C3.2874421 4.38325613 3.37044725 5.29521299 3.34057617 10.51269531 C3.34123329 11.47917496 3.34123329 11.47917496 3.34190369 12.46517944 C3.33982024 14.58647381 3.31651181 16.70696938 3.29296875 18.828125 C3.28737118 20.30213998 3.28310184 21.77616055 3.28010559 23.25018311 C3.26866941 27.12353006 3.23921314 30.99653776 3.20599365 34.86975098 C3.17526611 38.82457897 3.16159454 42.77946196 3.14648438 46.734375 C3.11434196 54.48973774 3.06316085 62.24482127 3 70 C3.66 70 4.32 70 5 70 C5 69.34 5 68.68 5 68 C6.65 68.66 8.3 69.32 10 70 C10.495 68.02 10.495 68.02 11 66 C11.33 66 11.66 66 12 66 C12.33 48.84 12.66 31.68 13 14 C15.17682185 18.35364371 15.24335984 20.45220692 15.22705078 25.24707031 C15.22734283 25.96941864 15.22763489 26.69176697 15.22793579 27.43600464 C15.22654562 29.81683483 15.21099934 32.19734967 15.1953125 34.578125 C15.19158125 36.23150461 15.18873481 37.88488643 15.18673706 39.53826904 C15.17910938 43.88499074 15.15946833 48.23157829 15.1373291 52.57824707 C15.11685204 57.01568792 15.10773136 61.4531505 15.09765625 65.890625 C15.07622161 74.59381149 15.04209612 83.29688904 15 92 C15.84183838 91.70230713 16.68367676 91.40461426 17.55102539 91.09790039 C20.70077674 89.98756263 23.85246757 88.8831084 27.00561523 87.7824707 C28.36515078 87.30659292 29.72389289 86.8284416 31.08178711 86.34790039 C33.04332247 85.65419545 35.00764647 84.96894812 36.97265625 84.28515625 C38.74008179 83.66459351 38.74008179 83.66459351 40.54321289 83.03149414 C44.03309169 81.99012555 47.38720958 81.42159308 51 81 C51 82.65 51 84.3 51 86 C49.02 85.505 49.02 85.505 47 85 C47 85.99 47 86.98 47 88 C46.02246356 89.02196992 45.0194119 90.01979625 44 91 C42.71563266 92.9837767 42.71563266 92.9837767 42 95 C42.33 95.66 42.66 96.32 43 97 C42.01 97.99 41.02 98.98 40 100 C43.3 100.33 46.6 100.66 50 101 C50 101.33 50 101.66 50 102 C46.72941155 102.33576553 43.45849221 102.6681927 40.1875 103 C39.25873047 103.09539062 38.32996094 103.19078125 37.37304688 103.2890625 C36.48037109 103.37929688 35.58769531 103.46953125 34.66796875 103.5625 C33.43469849 103.68818359 33.43469849 103.68818359 32.17651367 103.81640625 C30 104 30 104 27 104 C27 104.66 27 105.32 27 106 C21.17769658 111.59786088 15.71648155 114.56328875 7.625 115.3125 C0.92155335 114.73461667 -3.95869156 113.27924327 -8.75 108.4375 C-17.06731092 100.67088351 -33.82378186 102.23754706 -44.8125 101.375 C-46.48766491 101.24001335 -48.16279546 101.10459942 -49.83789062 100.96875 C-53.89154866 100.64091844 -57.94562442 100.31882963 -62 100 C-62 99.67 -62 99.34 -62 99 C-51.55634469 97.8333292 -41.80710015 98.4369913 -31.40234375 99.6796875 C-24.66443454 100.55965156 -24.66443454 100.55965156 -18.875 97.609375 C-18.25625 96.74828125 -17.6375 95.8871875 -17 95 C-16.01 94.67 -15.02 94.34 -14 94 C-14 92.35 -14 90.7 -14 89 C-9.29284832 89.5648582 -5.57427092 90.47524303 -1 92 C-0.67 61.64 -0.34 31.28 0 0 Z " fill="#504237" transform="translate(132,201)"/>
<path d="M0 0 C1.88361553 2.82542329 2.31902686 3.81059318 2.6875 7 C2.77386719 7.680625 2.86023438 8.36125 2.94921875 9.0625 C3 11 3 11 2 14 C1.34 14.33 0.68 14.66 0 15 C2.07553648 15.5534764 3.84365964 16 6 16 C6.33 15.01 6.66 14.02 7 13 C10 14 10 14 11 15 C11.66 13.68 12.32 12.36 13 11 C24.88 11 36.76 11 49 11 C49 11.33 49 11.66 49 12 C48.26362305 12.01458252 47.52724609 12.02916504 46.76855469 12.04418945 C43.42850996 12.11871111 40.08946019 12.21535873 36.75 12.3125 C35.59113281 12.33505859 34.43226563 12.35761719 33.23828125 12.38085938 C32.12324219 12.41630859 31.00820312 12.45175781 29.859375 12.48828125 C28.31975098 12.52755737 28.31975098 12.52755737 26.74902344 12.56762695 C23.65362183 13.0544792 22.39727263 14.06772114 20 16 C19.01 16 18.02 16 17 16 C16.67 17.98 16.34 19.96 16 22 C16.66 22.33 17.32 22.66 18 23 C17.67 23.66 17.34 24.32 17 25 C20.3 25 23.6 25 27 25 C27 25.33 27 25.66 27 26 C26.24605957 26.07516846 25.49211914 26.15033691 24.71533203 26.2277832 C-17.15522825 29.92421149 -17.15522825 29.92421149 -55.74609375 45.73046875 C-59.02161044 47.57543049 -61.43207838 46.76955172 -65 46 C-65.27719381 44.42120045 -65.52074143 42.83646933 -65.75 41.25 C-65.88921875 40.36828125 -66.0284375 39.4865625 -66.171875 38.578125 C-66 36 -66 36 -64.46875 33.91796875 C-61.41658998 31.5467495 -58.20405953 29.76139546 -54.75 28.0625 C-54.04689697 27.71477539 -53.34379395 27.36705078 -52.61938477 27.00878906 C-45.92937174 23.80115678 -39.10122267 21.51626896 -31.96142578 19.54248047 C-30.01961729 19.00542564 -28.08618031 18.44390825 -26.15234375 17.87890625 C-17.76632576 15.51139548 -9.64313182 14.06925342 -1 13 C-0.505 6.565 -0.505 6.565 0 0 Z " fill="#47392E" transform="translate(209,151)"/>
<path d="M0 0 C2.9296875 0.390625 2.9296875 0.390625 5.859375 0.78125 C8.30458395 1.06777357 8.30458395 1.06777357 12 1 C12.66 1.33 13.32 1.66 14 2 C13.95875 2.7425 13.9175 3.485 13.875 4.25 C14.00559736 7.12314196 14.5660352 8.55382476 16 11 C16.33 11.66 16.66 12.32 17 13 C17.99 13.33 18.98 13.66 20 14 C19.50886719 14.32613281 19.01773438 14.65226563 18.51171875 14.98828125 C16.16414053 18.11231945 16.68508278 21.44666118 16.8125 25.1875 C16.82603516 25.93708984 16.83957031 26.68667969 16.85351562 27.45898438 C16.88881461 29.30629767 16.94262083 31.15324066 17 33 C16.67 33 16.34 33 16 33 C15.67 58.08 15.34 83.16 15 109 C14.67 109 14.34 109 14 109 C13.505 96.13 13.505 96.13 13 83 C12.67 83.99 12.34 84.98 12 86 C11.0409375 85.7215625 11.0409375 85.7215625 10.0625 85.4375 C9.381875 85.293125 8.70125 85.14875 8 85 C7.505 85.495 7.505 85.495 7 86 C6.34 86 5.68 86 5 86 C4.67 93.92 4.34 101.84 4 110 C3.67 110 3.34 110 3 110 C3.00079559 108.83124329 3.00159119 107.66248657 3.00241089 106.45831299 C3.00601092 95.45167436 2.97826856 84.44550315 2.9197216 73.43901443 C2.8906311 67.78019448 2.87264167 62.12178998 2.87988281 56.46289062 C2.88646302 51.00313563 2.86406515 45.54420253 2.82144547 40.08461761 C2.81029096 38.00022049 2.80963511 35.91574024 2.81957626 33.83133698 C2.83170701 30.91431185 2.80674491 27.99981158 2.77294922 25.08300781 C2.78517014 24.21841949 2.79739105 23.35383118 2.8099823 22.46304321 C2.76164208 20.15244222 2.67254556 18.21182031 2 16 C-0.86551961 13.50810326 -0.86551961 13.50810326 -4 12 C-5.04612311 9.21710939 -4.89917369 7.02478939 -5 4 C-4.01 3.67 -3.02 3.34 -2 3 C-1.34 3.33 -0.68 3.66 0 4 C0 2.68 0 1.36 0 0 Z " fill="#3A2B20" transform="translate(130,185)"/>
<path d="M0 0 C0.78842285 -0.00612305 1.5768457 -0.01224609 2.38916016 -0.01855469 C4.5625 0.03125 4.5625 0.03125 8 0.5 C10.31282587 3.96923881 10.42478586 5.42205575 10 9.5 C8.03611512 12.08875735 6.15887018 13.32761058 2.91894531 13.80957031 C1.63648926 13.94250488 1.63648926 13.94250488 0.328125 14.078125 C-16.95123882 15.98313009 -34.25618458 18.51191265 -50.5625 24.80078125 C-53.48186126 25.63822623 -55.97702464 25.68525197 -59 25.5 C-60.875 24.4375 -60.875 24.4375 -62 22.5 C-62.1875 18.8125 -62.1875 18.8125 -62 15.5 C-43.34776156 5.41770895 -21.2361143 0.09115991 0 0 Z " fill="#4F4238" transform="translate(222,201.5)"/>
<path d="M0 0 C19.87668122 0.60924693 46.35676599 3.94613222 63.49609375 14.59375 C67.51035249 18.86655422 67.51035249 18.86655422 67.43359375 22.78125 C66.49609375 25.59375 66.49609375 25.59375 63.49609375 27.59375 C59.11401548 27.99861593 56.36835819 27.35248718 52.49609375 25.34375 C39.19672783 19.00730917 24.64911802 16.86287712 10.15625 15.03515625 C9.4748999 14.9489502 8.7935498 14.86274414 8.09155273 14.77392578 C6.24066461 14.54597599 4.38794809 14.33301439 2.53515625 14.12109375 C-0.260074 13.63606022 -2.16730359 13.18108577 -4.50390625 11.59375 C-5.66757055 8.10275709 -5.81890159 6.32552489 -4.35546875 2.92578125 C-2.50390625 0.59375 -2.50390625 0.59375 0 0 Z " fill="#48392D" transform="translate(51.50390625,228.40625)"/>
<path d="M0 0 C13.69569488 4.57479232 13.69569488 4.57479232 16.9375 9.4375 C16.75 12.5 16.75 12.5 15.9375 15.4375 C12.4719604 17.74785974 10.80123908 17.59173195 6.7734375 17.05078125 C2.68077733 16.16572939 -1.19857429 14.75319201 -5.1496582 13.38110352 C-13.97386989 10.37031154 -22.92936527 8.7855385 -32.16796875 7.6953125 C-33.24248291 7.56850098 -34.31699707 7.44168945 -35.42407227 7.31103516 C-37.56504378 7.06597745 -39.70749408 6.83344628 -41.85131836 6.61474609 C-51.364034 5.55734764 -51.364034 5.55734764 -55.0625 2.4375 C-56.17953004 -0.46677811 -56.3078571 -1.88304957 -55.25 -4.8125 C-47.63318388 -16.03728165 -10.22834842 -3.1590449 0 0 Z " fill="#483A2F" transform="translate(102.0625,209.5625)"/>
<path d="M0 0 C1.01578125 -0.02578125 2.0315625 -0.0515625 3.078125 -0.078125 C5.75 0.25 5.75 0.25 7.58203125 1.546875 C9.56100698 4.43260549 9.17094708 6.88242335 8.75 10.25 C6.02563185 12.86702835 3.88699205 13.65064668 0.171875 13.98828125 C-1.18103638 14.13015869 -1.18103638 14.13015869 -2.5612793 14.27490234 C-3.53105713 14.36980957 -4.50083496 14.4647168 -5.5 14.5625 C-21.22368933 16.3627212 -37.58716502 19.28616585 -51.8828125 26.3671875 C-54.80822523 27.458183 -57.15142917 27.47378567 -60.25 27.25 C-62.125 26.125 -62.125 26.125 -63.25 24.25 C-63.625 21.25 -63.625 21.25 -63.25 18.25 C-52.20254939 4.43191892 -16.45263461 0.25311746 0 0 Z " fill="#413228" transform="translate(223.25,228.75)"/>
<path d="M0 0 C1.94326172 0.02416992 1.94326172 0.02416992 3.92578125 0.04882812 C5.28907928 0.09060186 6.65236052 0.13292655 8.015625 0.17578125 C9.39449124 0.20087215 10.77340097 0.22368396 12.15234375 0.24414062 C15.52453856 0.30309508 18.89453241 0.38534954 22.265625 0.48828125 C22.265625 0.81828125 22.265625 1.14828125 22.265625 1.48828125 C9.890625 1.98328125 9.890625 1.98328125 -2.734375 2.48828125 C3.205625 2.48828125 9.145625 2.48828125 15.265625 2.48828125 C14.935625 3.80828125 14.605625 5.12828125 14.265625 6.48828125 C16.245625 7.14828125 18.225625 7.80828125 20.265625 8.48828125 C19.935625 9.14828125 19.605625 9.80828125 19.265625 10.48828125 C18.46125 10.46765625 17.656875 10.44703125 16.828125 10.42578125 C14.33207615 10.19194504 14.33207615 10.19194504 13.265625 11.48828125 C18.875625 11.81828125 24.485625 12.14828125 30.265625 12.48828125 C30.265625 12.81828125 30.265625 13.14828125 30.265625 13.48828125 C21.355625 13.48828125 12.445625 13.48828125 3.265625 13.48828125 C3.265625 46.48828125 3.265625 79.48828125 3.265625 113.48828125 C2.935625 113.48828125 2.605625 113.48828125 2.265625 113.48828125 C1.935625 78.83828125 1.605625 44.18828125 1.265625 8.48828125 C0.935625 9.80828125 0.605625 11.12828125 0.265625 12.48828125 C0.595625 12.81828125 0.925625 13.14828125 1.265625 13.48828125 C1.40677661 16.15886976 1.30809607 18.81260363 1.265625 21.48828125 C0.605625 21.15828125 -0.054375 20.82828125 -0.734375 20.48828125 C-0.734375 18.83828125 -0.734375 17.18828125 -0.734375 15.48828125 C-2.1575 15.76671875 -2.1575 15.76671875 -3.609375 16.05078125 C-6.734375 16.48828125 -6.734375 16.48828125 -8.734375 15.48828125 C-8.92102257 30.2522221 -8.92102257 30.2522221 -8.171875 44.98828125 C-7.44579333 54.47707457 -7.99140658 63.96487382 -8.41577148 73.45898438 C-8.46934814 74.72419922 -8.5229248 75.98941406 -8.578125 77.29296875 C-8.63162109 78.43749512 -8.68511719 79.58202148 -8.74023438 80.76123047 C-8.93683709 83.45443272 -8.93683709 83.45443272 -7.734375 85.48828125 C-7.67340821 86.84777402 -7.67598993 88.21043545 -7.71264648 89.57080078 C-7.73274277 90.4115213 -7.75283905 91.25224182 -7.77354431 92.11843872 C-7.80057938 93.02681488 -7.82761444 93.93519104 -7.85546875 94.87109375 C-7.87907974 95.80049774 -7.90269073 96.72990173 -7.92701721 97.68746948 C-8.0037359 100.66289231 -8.08772491 103.63806021 -8.171875 106.61328125 C-8.22508747 108.62759159 -8.27782792 110.64191447 -8.33007812 112.65625 C-8.45936216 117.60042257 -8.59516793 122.54437852 -8.734375 127.48828125 C-7.744375 127.81828125 -6.754375 128.14828125 -5.734375 128.48828125 C-6.724375 128.81828125 -7.714375 129.14828125 -8.734375 129.48828125 C-9.229375 130.47828125 -9.229375 130.47828125 -9.734375 131.48828125 C-11.38244498 129.84021127 -10.87093244 127.92712836 -10.88154602 125.65618896 C-10.89227898 124.08731178 -10.89227898 124.08731178 -10.90322876 122.48674011 C-10.90591766 121.3293483 -10.90860657 120.17195648 -10.91137695 118.97949219 C-10.91794815 117.7681813 -10.92451935 116.55687042 -10.93128967 115.30885315 C-10.94766287 111.97602545 -10.95925877 108.64326152 -10.9674952 105.31040859 C-10.97264126 103.22871843 -10.97871725 101.14703276 -10.98500633 99.06534576 C-11.0040676 92.55399337 -11.0182953 86.04265237 -11.0266183 79.53127742 C-11.03638762 72.01207716 -11.06269488 64.49317153 -11.10311919 56.97407508 C-11.13327853 51.16510509 -11.14808708 45.35621955 -11.15139931 39.54717278 C-11.15375056 36.07660129 -11.16271947 32.60634421 -11.18786049 29.13585663 C-11.21546845 25.2620247 -11.21131059 21.38858007 -11.2043457 17.51464844 C-11.21715576 16.36535355 -11.22996582 15.21605865 -11.24316406 14.03193665 C-11.1923211 6.29108571 -11.1923211 6.29108571 -8.89976501 2.27210999 C-5.87293086 -0.22136865 -3.88582276 -0.08521541 0 0 Z " fill="#2B1D14" transform="translate(25.734375,162.51171875)"/>
<path d="M0 0 C5.76898539 2.1511471 8.21480306 6.45121184 11.6875 11.375 C12.56094502 12.57665264 13.43601356 13.77712647 14.3125 14.9765625 C25.56602683 30.47631988 25.56602683 30.47631988 24.6875 36.375 C23.125 38.75 23.125 38.75 20.6875 40.375 C17.3125 41.0625 17.3125 41.0625 13.6875 40.375 C11.19686649 38.4083699 9.51170245 35.9521902 7.6875 33.375 C7.07003906 32.54097656 6.45257813 31.70695312 5.81640625 30.84765625 C4.45886601 29.00320099 3.11680665 27.1472688 1.7890625 25.28125 C0.36625142 23.31364509 -1.09914216 21.37625978 -2.6015625 19.46875 C-8.82445963 11.46474097 -8.82445963 11.46474097 -9.125 7.4375 C-8.3125 4.375 -8.3125 4.375 -6.25 1.875 C-3.3125 0.375 -3.3125 0.375 0 0 Z " fill="#43352A" transform="translate(64.3125,27.625)"/>
<path d="M0 0 C4.1891628 0.76943807 5.44695108 2.2289466 8.0625 5.5625 C8.54956378 8.57287448 8.74301408 11.00287094 8.69140625 14.00390625 C8.69381821 14.80859848 8.69623016 15.61329071 8.69871521 16.44236755 C8.69773872 18.13765407 8.68439208 19.83297325 8.65942383 21.52807617 C8.62505659 24.12073059 8.63878638 26.70998507 8.65820312 29.30273438 C8.65130571 30.95313948 8.64163426 32.60353581 8.62890625 34.25390625 C8.63386612 35.02690567 8.63882599 35.79990509 8.64393616 36.59632874 C8.56725799 40.10345867 8.33961088 42.18297615 6.24584961 45.05053711 C3.03905101 47.27123528 0.86704905 47.10600701 -2.9375 46.5625 C-5.12304688 45.06640625 -5.12304688 45.06640625 -6.9375 42.5625 C-7.33522619 39.58180487 -7.49897059 36.97845697 -7.46875 34 C-7.4725769 33.17169678 -7.47640381 32.34339355 -7.48034668 31.48999023 C-7.48306425 29.74168683 -7.47571381 27.99334266 -7.45898438 26.24511719 C-7.43757082 23.57134223 -7.45878944 20.90025404 -7.484375 18.2265625 C-7.48173169 16.52603575 -7.47660665 14.82551066 -7.46875 13.125 C-7.48089539 11.92798462 -7.48089539 11.92798462 -7.49328613 10.70678711 C-7.43277145 7.11882701 -7.25117032 4.98646833 -5.08789062 2.0625 C-2.9375 0.5625 -2.9375 0.5625 0 0 Z " fill="#2F2218" transform="translate(138.9375,4.4375)"/>
<path d="M0 0 C1.49590709 2.99181417 1.42743011 4.6416206 1 8 C-0.70797778 11.22150885 -2.62370968 14.22971336 -5 17 C-5.66 17 -6.32 17 -7 17 C-7.309375 17.78375 -7.61875 18.5675 -7.9375 19.375 C-9 22 -9 22 -10 24 C-10.66 24 -11.32 24 -12 24 C-12.185625 24.66 -12.37125 25.32 -12.5625 26 C-14.64728759 30.35086107 -17.28805638 33.89424072 -21 37 C-24.6875 37.75 -24.6875 37.75 -28 37 C-30.4375 35.375 -30.4375 35.375 -32 33 C-32.63606928 28.3619948 -31.65619093 25.85079966 -28.90063477 22.1027832 C-28.45905029 21.53261475 -28.01746582 20.96244629 -27.5625 20.375 C-27.11382568 19.77324951 -26.66515137 19.17149902 -26.20288086 18.55151367 C-25.27284799 17.30727831 -24.3366685 16.06761474 -23.39453125 14.83251953 C-22.05808668 13.07633028 -20.74419811 11.30573545 -19.4375 9.52734375 C-11.43241208 -1.30849072 -11.43241208 -1.30849072 -8.1875 -2.875 C-4.86879334 -3.06464038 -2.79622789 -1.67773673 0 0 Z " fill="#43362B" transform="translate(221,31)"/>
<path d="M0 0 C2.28482276 1.77708437 3.64483259 3.28966518 4.9375 5.875 C5.03687927 9.25389528 3.78592039 11.16716076 2 14 C-1.046875 15.6875 -1.046875 15.6875 -4.75 17 C-6.09934646 17.49112243 -7.44829358 17.9833432 -8.796875 18.4765625 C-9.48974609 18.7230957 -10.18261719 18.96962891 -10.89648438 19.22363281 C-12.98611702 19.99487606 -15.03021847 20.83538326 -17.078125 21.7109375 C-17.73586914 21.989375 -18.39361328 22.2678125 -19.07128906 22.5546875 C-20.90268436 23.33361006 -22.73263401 24.11592902 -24.5625 24.8984375 C-28.27621256 26.08851357 -31.12448734 26.32021247 -35 26 C-37.4375 24.375 -37.4375 24.375 -39 22 C-39.5 19 -39.5 19 -39 16 C-36.29820483 12.77388384 -33.76339234 11.21073062 -29.875 9.6875 C-28.82957031 9.275 -27.78414062 8.8625 -26.70703125 8.4375 C-25.48371094 7.963125 -24.26039063 7.48875 -23 7 C-21.46155174 6.37669505 -19.9238306 5.75159337 -18.38671875 5.125 C-16.77894821 4.47841429 -15.17087591 3.8325784 -13.5625 3.1875 C-12.79341309 2.87321045 -12.02432617 2.5589209 -11.23193359 2.23510742 C-4.06249441 -0.59543053 -4.06249441 -0.59543053 0 0 Z " fill="#423428" transform="translate(266,88)"/>
<path d="M0 0 C3.82487962 0.33474434 6.76488283 1.36007221 10.3347168 2.77246094 C10.98499344 3.02932678 11.63527008 3.28619263 12.30525208 3.55084229 C13.67121405 4.0938576 15.03510488 4.64210919 16.39697266 5.1953125 C18.4773689 6.03732538 20.56625416 6.85493263 22.65698242 7.67089844 C23.98763898 8.20330921 25.31773784 8.73711638 26.6472168 9.27246094 C27.85015381 9.75424805 29.05309082 10.23603516 30.29248047 10.73242188 C33.32816265 12.30697351 34.69625507 13.29604285 36.29174805 16.28808594 C36.29174805 19.85058594 36.29174805 19.85058594 35.29174805 23.28808594 C33.16674805 25.28808594 33.16674805 25.28808594 30.29174805 26.28808594 C25.42227019 25.86039097 21.3233258 24.72268949 16.80737305 22.88964844 C15.62530273 22.41011719 14.44323242 21.93058594 13.2253418 21.43652344 C11.40196289 20.68242188 11.40196289 20.68242188 9.54174805 19.91308594 C8.29847948 19.41253661 7.05499148 18.91253199 5.8112793 18.41308594 C-4.49031099 14.19315739 -4.49031099 14.19315739 -6.70825195 11.28808594 C-7.28242611 7.51494149 -6.96964241 5.75054598 -5.08325195 2.41308594 C-2.70825195 0.28808594 -2.70825195 0.28808594 0 0 Z " fill="#43352A" transform="translate(16.708251953125,87.7119140625)"/>
<path d="M0 0 C1.88361553 2.82542329 2.31902686 3.81059318 2.6875 7 C2.77386719 7.680625 2.86023438 8.36125 2.94921875 9.0625 C3 11 3 11 2 14 C1.01 14.495 1.01 14.495 0 15 C2.07553648 15.5534764 3.84365964 16 6 16 C6.33 15.01 6.66 14.02 7 13 C10 14 10 14 11 15 C11.66 13.68 12.32 12.36 13 11 C24.88 11 36.76 11 49 11 C49 11.33 49 11.66 49 12 C48.26362305 12.01458252 47.52724609 12.02916504 46.76855469 12.04418945 C43.42850996 12.11871111 40.08946019 12.21535873 36.75 12.3125 C35.59113281 12.33505859 34.43226563 12.35761719 33.23828125 12.38085938 C32.12324219 12.41630859 31.00820312 12.45175781 29.859375 12.48828125 C28.31975098 12.52755737 28.31975098 12.52755737 26.74902344 12.56762695 C23.65362183 13.0544792 22.39727263 14.06772114 20 16 C19.01 16 18.02 16 17 16 C16.67 17.98 16.34 19.96 16 22 C16.66 22.33 17.32 22.66 18 23 C17.67 23.66 17.34 24.32 17 25 C20.3 25 23.6 25 27 25 C27 25.33 27 25.66 27 26 C25.89265503 26.11275269 25.89265503 26.11275269 24.76293945 26.2277832 C9.12091084 27.83187621 -6.45502202 29.62787674 -22 32 C-21.67 31.01 -21.34 30.02 -21 29 C-21.99 28.67 -22.98 28.34 -24 28 C-23.34 27.67 -22.68 27.34 -22 27 C-21.34786708 24.97536745 -21.34786708 24.97536745 -21 23 C-20.67 23.33 -20.34 23.66 -20 24 C-19.67 23.34 -19.34 22.68 -19 22 C-18.01 22.33 -17.02 22.66 -16 23 C-15.34 23 -14.68 23 -14 23 C-13.71125 22.38125 -13.4225 21.7625 -13.125 21.125 C-12 19 -12 19 -10 17 C-13.3 17 -16.6 17 -20 17 C-20 16.67 -20 16.34 -20 16 C-13.73 15.01 -7.46 14.02 -1 13 C-0.67 8.71 -0.34 4.42 0 0 Z " fill="#4F4236" transform="translate(209,151)"/>
<path d="M0 0 C3.86648671 3.80412403 3.58941087 8.01777161 3.75 13.125 C3.78456299 13.97578125 3.81912598 14.8265625 3.85473633 15.703125 C4.37174115 30.94238827 4.37174115 30.94238827 1 36 C2.98 36 4.96 36 7 36 C7 36.33 7 36.66 7 37 C5.329375 37.1546875 5.329375 37.1546875 3.625 37.3125 C2.42875 37.539375 1.2325 37.76625 0 38 C-0.66 38.99 -1.32 39.98 -2 41 C-2.33 39.68 -2.66 38.36 -3 37 C-3.66 37 -4.32 37 -5 37 C-5.433125 37.515625 -5.86625 38.03125 -6.3125 38.5625 C-6.869375 39.036875 -7.42625 39.51125 -8 40 C-10.6875 39.6875 -10.6875 39.6875 -13 39 C-12.67 38.34 -12.34 37.68 -12 37 C-11.34 37 -10.68 37 -10 37 C-10.0721875 36.44957031 -10.144375 35.89914063 -10.21875 35.33203125 C-10.97148728 28.58875982 -11.20093444 21.84185114 -11.3125 15.0625 C-11.34214844 14.13864502 -11.37179688 13.21479004 -11.40234375 12.26293945 C-11.46031797 5.67018337 -11.46031797 5.67018337 -9.18359375 2.35546875 C-7 1 -7 1 -3.75 1.25 C-2.38875 1.62125 -2.38875 1.62125 -1 2 C-0.67 1.34 -0.34 0.68 0 0 Z " fill="#3F3126" transform="translate(221,128)"/>
<path d="M0 0 C2.64 0 5.28 0 8 0 C9.91914174 4.82899227 10.28004027 9.18801051 10.23046875 14.3203125 C10.22978142 15.49193436 10.22978142 15.49193436 10.2290802 16.68722534 C10.22607327 18.3294223 10.21823399 19.97161681 10.20581055 21.61376953 C10.18750637 24.12412636 10.18530148 26.63411448 10.18554688 29.14453125 C10.18063256 30.74479485 10.17480462 32.34505596 10.16796875 33.9453125 C10.16685593 34.69330109 10.1657431 35.44128967 10.16459656 36.21194458 C10.13368285 39.60903602 10.06221752 42.75242224 9 46 C3.375 46.25 3.375 46.25 0 44 C-0.44824219 41.99487305 -0.44824219 41.99487305 -0.546875 39.51171875 C-0.58756104 38.58689697 -0.62824707 37.6620752 -0.67016602 36.70922852 C-0.69651123 35.71205811 -0.72285645 34.7148877 -0.75 33.6875 C-0.78601318 32.67034912 -0.82202637 31.65319824 -0.85913086 30.60522461 C-1.15083446 20.37346406 -0.68467994 10.20699792 0 0 Z " fill="#3B2C20" transform="translate(17,178)"/>
<path d="M0 0 C0.495 3.465 0.495 3.465 1 7 C0.34 7.33 -0.32 7.66 -1 8 C-1.12665039 8.64243652 -1.25330078 9.28487305 -1.38378906 9.94677734 C-2 12 -2 12 -3.68652344 13.06494141 C-4.40356445 13.32452637 -5.12060547 13.58411133 -5.859375 13.8515625 C-6.64570313 14.14546875 -7.43203125 14.439375 -8.2421875 14.7421875 C-9.06976563 15.03351563 -9.89734375 15.32484375 -10.75 15.625 C-11.56210938 15.9240625 -12.37421875 16.223125 -13.2109375 16.53125 C-14.78087436 17.10910949 -16.35324021 17.68042232 -17.92822266 18.24438477 C-19.59528251 18.8523921 -21.24287012 19.51365228 -22.8828125 20.19140625 C-25.74106233 21.28302565 -27.97023152 21.32932266 -31 21 C-32.875 19.875 -32.875 19.875 -34 18 C-34.375 15 -34.375 15 -34 12 C-27.3522558 3.59947437 -10.24564696 -0.78812669 0 0 Z " fill="#44362C" transform="translate(194,235)"/>
<path d="M0 0 C0.86238281 -0.020625 1.72476563 -0.04125 2.61328125 -0.0625 C3.43699219 -0.06765625 4.26070312 -0.0728125 5.109375 -0.078125 C5.85670898 -0.0874707 6.60404297 -0.09681641 7.37402344 -0.10644531 C7.9930957 0.01118164 8.61216797 0.12880859 9.25 0.25 C11.56282587 3.71923881 11.67478586 5.17205575 11.25 9.25 C10.03588867 10.91918945 10.03588867 10.91918945 8.25 12.25 C5.98168945 12.59057617 5.98168945 12.59057617 3.36328125 12.54296875 C2.42548828 12.53330078 1.48769531 12.52363281 0.52148438 12.51367188 C-0.45498047 12.48853516 -1.43144531 12.46339844 -2.4375 12.4375 C-3.91959961 12.41719727 -3.91959961 12.41719727 -5.43164062 12.39648438 C-7.87164231 12.36112203 -10.31054719 12.31177033 -12.75 12.25 C-13.08 10.6 -13.41 8.95 -13.75 7.25 C-13.09 7.25 -12.43 7.25 -11.75 7.25 C-11.75 6.26 -11.75 5.27 -11.75 4.25 C-14.39 4.58 -17.03 4.91 -19.75 5.25 C-19.75 4.59 -19.75 3.93 -19.75 3.25 C-13.66873302 -0.25842326 -6.82097012 0.04152798 0 0 Z " fill="#342519" transform="translate(220.75,201.75)"/>
<path d="M0 0 C-0.99 0.495 -0.99 0.495 -2 1 C-2.46751788 3.35599235 -2.46751788 3.35599235 -2.625 6.0625 C-2.69976562 6.98160156 -2.77453125 7.90070313 -2.8515625 8.84765625 C-2.90054688 9.55792969 -2.94953125 10.26820313 -3 11 C-5.31 11.33 -7.62 11.66 -10 12 C-10.04125 12.61875 -10.0825 13.2375 -10.125 13.875 C-11 16 -11 16 -13.6875 17.25 C-21.28707375 18.97065821 -21.28707375 18.97065821 -24.875 16.9375 C-26.58196395 13.99772876 -26.18799766 11.32129197 -26 8 C-24.12762629 7.03654556 -22.2519701 6.07946898 -20.375 5.125 C-19.33085937 4.59132812 -18.28671875 4.05765625 -17.2109375 3.5078125 C-11.13343311 0.65389925 -6.61347179 -0.22805075 0 0 Z " fill="#46382D" transform="translate(186,209)"/>
<path d="M0 0 C0.391875 0.45375 0.78375 0.9075 1.1875 1.375 C2.92594111 3.15112152 2.92594111 3.15112152 5.37890625 3.7890625 C8.66191431 5.30580244 9.77847708 6.99909785 11.75 10 C12.34296875 10.886875 12.9359375 11.77375 13.546875 12.6875 C15.88886986 16.41454558 16.27169644 18.56229147 16 23 C15.34 23.99 14.68 24.98 14 26 C12.0546875 26.29296875 12.0546875 26.29296875 9.875 26.1875 C8.59625 26.125625 7.3175 26.06375 6 26 C6.66 25.34 7.32 24.68 8 24 C7.6814823 21.89179203 7.6814823 21.89179203 7 20 C6.01 20.33 5.02 20.66 4 21 C0.0747975 17.29909479 -2.94580156 13.45040344 -6 9 C-5.67 8.34 -5.34 7.68 -5 7 C-4.34 7 -3.68 7 -3 7 C-3 6.34 -3 5.68 -3 5 C-2.01 4.67 -1.02 4.34 0 4 C-0.33 3.01 -0.66 2.02 -1 1 C-0.67 0.67 -0.34 0.34 0 0 Z " fill="#423327" transform="translate(73,41)"/>
<path d="M0 0 C0.66 0.33 1.32 0.66 2 1 C2.29154519 19.36734694 2.29154519 19.36734694 -2 25 C-4.92022709 26.36934272 -7.86785233 27.25143641 -11 28 C-11 27.34 -11 26.68 -11 26 C-14.3 25.67 -17.6 25.34 -21 25 C-21 24.34 -21 23.68 -21 23 C-29.91 23 -38.82 23 -48 23 C-48 22.67 -48 22.34 -48 22 C-43.49764405 21.97527641 -38.99532764 21.95712881 -34.49291992 21.94506836 C-32.9613374 21.9400404 -31.42975967 21.93321716 -29.89819336 21.92456055 C-27.69643978 21.91242771 -25.49474967 21.90675633 -23.29296875 21.90234375 C-22.60849167 21.89718246 -21.92401459 21.89202118 -21.21879578 21.88670349 C-18.19093758 21.8863464 -15.89849858 22.03383381 -13 23 C-13.2475 21.3603125 -13.2475 21.3603125 -13.5 19.6875 C-14.16622112 14.46094841 -14.08701543 9.2595992 -14 4 C-13.01 3.67 -12.02 3.34 -11 3 C-9.68 6.3 -8.36 9.6 -7 13 C-6.34 13 -5.68 13 -5 13 C-4.67 12.34 -4.34 11.68 -4 11 C-3.34 11 -2.68 11 -2 11 C-1.90912109 10.06027344 -1.90912109 10.06027344 -1.81640625 9.1015625 C-1.73261719 8.28429687 -1.64882812 7.46703125 -1.5625 6.625 C-1.48128906 5.81289062 -1.40007812 5.00078125 -1.31640625 4.1640625 C-1 2 -1 2 0 0 Z " fill="#3E3126" transform="translate(69,140)"/>
<path d="M0 0 C-1.65 1.65 -3.3 3.3 -5 5 C-4.34 5.66 -3.68 6.32 -3 7 C-3.99 7.33 -4.98 7.66 -6 8 C-6.66 8.66 -7.32 9.32 -8 10 C-8.33 9.01 -8.66 8.02 -9 7 C-9.66 6.67 -10.32 6.34 -11 6 C-11.33 7.32 -11.66 8.64 -12 10 C-12.33 9.34 -12.66 8.68 -13 8 C-13.66 9.32 -14.32 10.64 -15 12 C-14.34 12.33 -13.68 12.66 -13 13 C-14.45015106 16.74622356 -14.45015106 16.74622356 -16.625 17.75 C-20.09737727 18.1155134 -23.50864298 18.05818928 -27 18 C-27.33 17.34 -27.66 16.68 -28 16 C-27.67 15.34 -27.34 14.68 -27 14 C-27.66 14 -28.32 14 -29 14 C-29 11.36 -29 8.72 -29 6 C-19.28966712 1.72745353 -10.66105406 -0.11567147 0 0 Z " fill="#37291D" transform="translate(201,167)"/>
<path d="M0 0 C0.33 0 0.66 0 1 0 C1.33 2.97 1.66 5.94 2 9 C2.33 9 2.66 9 3 9 C3.06058594 10.12019531 3.12117187 11.24039062 3.18359375 12.39453125 C3.26801424 13.86719984 3.35266149 15.33985544 3.4375 16.8125 C3.47681641 17.55048828 3.51613281 18.28847656 3.55664062 19.04882812 C3.74381035 22.23071342 3.98720793 24.96162378 5 28 C5.99 28 6.98 28 8 28 C8 27.34 8 26.68 8 26 C8.66 26 9.32 26 10 26 C10.66 24.35 11.32 22.7 12 21 C12.33 21 12.66 21 13 21 C13.33 14.4 13.66 7.8 14 1 C14.33 1 14.66 1 15 1 C15.09895826 6.19606986 15.17150993 11.39158998 15.21972656 16.58837891 C15.2398285 18.35572872 15.26711472 20.12301213 15.30175781 21.89013672 C15.35034009 24.43213285 15.37298226 26.97324896 15.390625 29.515625 C15.41127014 30.30430969 15.43191528 31.09299438 15.45318604 31.90557861 C15.45463935 35.46746473 15.30892129 37.57245561 13.19433594 40.49902344 C9.97738072 42.69949526 7.80361168 42.5433731 4 42 C1.80566406 40.51269531 1.80566406 40.51269531 0 38 C-0.34890086 34.97094023 -0.46754756 32.31696713 -0.390625 29.296875 C-0.38496521 28.45908508 -0.37930542 27.62129517 -0.37347412 26.75811768 C-0.35112329 24.08815834 -0.30093098 21.41955213 -0.25 18.75 C-0.22993325 16.93751941 -0.21168278 15.12501774 -0.1953125 13.3125 C-0.15126294 8.87448041 -0.08224566 4.43746944 0 0 Z " fill="#5E5248" transform="translate(132,9)"/>
<path d="M0 0 C0.80566406 0.00322266 1.61132812 0.00644531 2.44140625 0.00976562 C3.70404297 0.02233398 3.70404297 0.02233398 4.9921875 0.03515625 C5.84167969 0.03966797 6.69117188 0.04417969 7.56640625 0.04882812 C9.66669659 0.06062751 11.7669508 0.07856319 13.8671875 0.09765625 C13.8671875 0.75765625 13.8671875 1.41765625 13.8671875 2.09765625 C14.47046875 2.21882812 15.07375 2.34 15.6953125 2.46484375 C16.49453125 2.63242188 17.29375 2.8 18.1171875 2.97265625 C18.90609375 3.13507813 19.695 3.2975 20.5078125 3.46484375 C22.83549894 4.089157 24.75750702 4.94604167 26.8671875 6.09765625 C23.62987854 7.8115257 22.38479818 8.2561085 18.8046875 7.16015625 C17.8353125 6.80953125 16.8659375 6.45890625 15.8671875 6.09765625 C13.05402507 6.46297986 13.05402507 6.46297986 10.8671875 8.09765625 C10.5371875 9.08765625 10.2071875 10.07765625 9.8671875 11.09765625 C12.1771875 11.42765625 14.4871875 11.75765625 16.8671875 12.09765625 C16.8671875 12.42765625 16.8671875 12.75765625 16.8671875 13.09765625 C13.80415172 13.17881618 10.74327935 13.23823034 7.6796875 13.28515625 C6.81537109 13.31029297 5.95105469 13.33542969 5.06054688 13.36132812 C0.19708755 13.41722996 -3.23885517 13.38171665 -7.1328125 10.09765625 C-8.24984254 7.19337814 -8.3781696 5.77710668 -7.3203125 2.84765625 C-5.29968784 -0.1301064 -3.37336055 -0.02375606 0 0 Z " fill="#423529" transform="translate(54.1328125,201.90234375)"/>
<path d="M0 0 C0.125 6.625 0.125 6.625 -1 10 C-0.22914062 9.90460938 0.54171875 9.80921875 1.3359375 9.7109375 C2.33882812 9.60007812 3.34171875 9.48921875 4.375 9.375 C5.37273437 9.25898437 6.37046875 9.14296875 7.3984375 9.0234375 C8.25695312 9.01570313 9.11546875 9.00796875 10 9 C10.66 9.66 11.32 10.32 12 11 C11.18917969 11.21914062 10.37835938 11.43828125 9.54296875 11.6640625 C0.52726641 14.24597493 -7.20388212 17.80258808 -15 23 C-14.42655063 20.13275314 -14.1385485 19.1385485 -12 17 C-13.65 16.67 -15.3 16.34 -17 16 C-17.33 14.68 -17.66 13.36 -18 12 C-15.36 10.02 -12.72 8.04 -10 6 C-11.65 6 -13.3 6 -15 6 C-10.76325167 2.27679693 -5.77650185 -1.92550062 0 0 Z " fill="#483B30" transform="translate(113,67)"/>
<path d="M0 0 C6.31631828 0.40316925 10.64993984 2.71232131 16 6 C15.525625 6.45375 15.05125 6.9075 14.5625 7.375 C12.90972192 8.93258204 12.90972192 8.93258204 12 11 C9.9375 11.625 9.9375 11.625 8 12 C8 13.98 8 15.96 8 18 C2.8423143 16.58163643 -1.79975258 14.32608425 -6 11 C-6 10.34 -6 9.68 -6 9 C-6.66 8.67 -7.32 8.34 -8 8 C-5.25 2.125 -5.25 2.125 -3 1 C-2.01 1.33 -1.02 1.66 0 2 C0 1.34 0 0.68 0 0 Z " fill="#423429" transform="translate(118,178)"/>
<path d="M0 0 C1.05445313 0.03996094 2.10890625 0.07992187 3.1953125 0.12109375 C4.34128906 0.16363281 5.48726562 0.20617187 6.66796875 0.25 C12.27283877 0.72356656 17.78943773 1.54475091 23.3203125 2.55859375 C23.3203125 2.88859375 23.3203125 3.21859375 23.3203125 3.55859375 C21.30208333 3.4609375 19.28385417 3.36328125 17.265625 3.265625 C16.62367187 3.36230469 15.98171875 3.45898438 15.3203125 3.55859375 C14.3303125 5.04359375 14.3303125 5.04359375 13.3203125 6.55859375 C12.6603125 6.55859375 12.0003125 6.55859375 11.3203125 6.55859375 C11.89376187 9.42584061 12.181764 10.42004525 14.3203125 12.55859375 C12.3203125 14.55859375 12.3203125 14.55859375 9.421875 14.60546875 C8.27460937 14.5075 7.12734375 14.40953125 5.9453125 14.30859375 C4.80320312 14.2209375 3.66109375 14.13328125 2.484375 14.04296875 C-0.40570362 13.60053696 -2.28459626 13.20273002 -4.6796875 11.55859375 C-5.84072984 8.07546672 -5.98759805 6.28735089 -4.55078125 2.88671875 C-2.6796875 0.55859375 -2.6796875 0.55859375 0 0 Z " fill="#504339" transform="translate(51.6796875,228.44140625)"/>
<path d="M0 0 C-2.93828597 2.50298434 -5.17902761 3.46930939 -9 4 C-8.67 4.99 -8.34 5.98 -8 7 C-8.33 7.99 -8.66 8.98 -9 10 C-7.02 10.66 -5.04 11.32 -3 12 C-3 12.66 -3 13.32 -3 14 C-5.70827004 14.47952665 -8.41661344 14.95863231 -11.125 15.4375 C-11.88554687 15.57220703 -12.64609375 15.70691406 -13.4296875 15.84570312 C-17.61637161 16.58559127 -21.80477147 17.30973077 -26 18 C-25.34 17.67 -24.68 17.34 -24 17 C-24 15.02 -24 13.04 -24 11 C-23.01 11.33 -22.02 11.66 -21 12 C-21.33 9.69 -21.66 7.38 -22 5 C-23.32 4.67 -24.64 4.34 -26 4 C-22.79363027 3.32364936 -19.58463311 2.66067552 -16.375 2 C-15.47136719 1.80921875 -14.56773437 1.6184375 -13.63671875 1.421875 C-9.01796444 0.47789602 -4.74352828 -0.25214768 0 0 Z " fill="#52463B" transform="translate(216,230)"/>
<path d="M0 0 C11.38448288 2.91796454 11.38448288 2.91796454 15 7 C16.0625 10 16.0625 10 16 13 C14.4375 15.375 14.4375 15.375 12 17 C7.33710708 17.43162824 4.29975818 16.5364674 0.125 14.5 C-0.84179688 14.0359375 -1.80859375 13.571875 -2.8046875 13.09375 C-3.89136719 12.55234375 -3.89136719 12.55234375 -5 12 C-5 11.34 -5 10.68 -5 10 C-2.03 10.495 -2.03 10.495 1 11 C0.773125 10.4225 0.54625 9.845 0.3125 9.25 C0 7 0 7 1.4375 4.75 C2.2109375 3.88375 2.2109375 3.88375 3 3 C2.34 3 1.68 3 1 3 C0.67 2.01 0.34 1.02 0 0 Z " fill="#4D4035" transform="translate(103,239)"/>
<path d="M0 0 C0 0.66 0 1.32 0 2 C-0.66 2 -1.32 2 -2 2 C-2.185625 2.66 -2.37125 3.32 -2.5625 4 C-4.64728759 8.35086107 -7.28805638 11.89424072 -11 15 C-14.6875 15.75 -14.6875 15.75 -18 15 C-20.4375 13.375 -20.4375 13.375 -22 11 C-22.5 8 -22.5 8 -22 5 C-20 2.625 -20 2.625 -18 1 C-18 1.66 -18 2.32 -18 3 C-15.36 2.34 -12.72 1.68 -10 1 C-10 2.32 -10 3.64 -10 5 C-9.34 4.34 -8.68 3.68 -8 3 C-4.91710107 0.32815426 -4.31875624 0 0 0 Z " fill="#493C30" transform="translate(211,53)"/>
<path d="M0 0 C0.495 0.165 0.99 0.33 1.5 0.5 C1.5 1.16 1.5 1.82 1.5 2.5 C2.49 2.5 3.48 2.5 4.5 2.5 C4.83 3.82 5.16 5.14 5.5 6.5 C4.84 6.5 4.18 6.5 3.5 6.5 C4.49 7.82 5.48 9.14 6.5 10.5 C3.89674384 10.86247871 1.29279598 11.21527655 -1.3125 11.5625 C-2.05048828 11.66626953 -2.78847656 11.77003906 -3.54882812 11.87695312 C-6.93174779 12.32086566 -9.22055025 12.59314992 -12.5 11.5 C-12.46744792 9.48177083 -12.43489583 7.46354167 -12.40234375 5.4453125 C-12.37350758 3.41814596 -12.37350758 3.41814596 -13.5 1.5 C-9.22141938 -1.35238708 -4.89339641 -0.97867928 0 0 Z " fill="#3A2C20" transform="translate(124.5,65.5)"/>
<path d="M0 0 C0.66 0.33 1.32 0.66 2 1 C1.030625 1.28875 0.06125 1.5775 -0.9375 1.875 C-4.10664203 2.64214682 -4.10664203 2.64214682 -5 5 C-5.66 4.67 -6.32 4.34 -7 4 C-6.67 5.65 -6.34 7.3 -6 9 C-5.01 8.67 -4.02 8.34 -3 8 C-3 9.32 -3 10.64 -3 12 C-2.21625 11.79375 -1.4325 11.5875 -0.625 11.375 C0.674375 11.189375 0.674375 11.189375 2 11 C2.66 11.66 3.32 12.32 4 13 C2.13103445 13.84678051 0.25449819 14.67686211 -1.625 15.5 C-3.19121094 16.19609375 -3.19121094 16.19609375 -4.7890625 16.90625 C-8.11104015 18.03782389 -10.51945203 18.29004566 -14 18 C-15.875 16.875 -15.875 16.875 -17 15 C-17.64575909 9.8339273 -17.64575909 9.8339273 -15.8203125 7.4765625 C-13.53064129 5.61927555 -11.1986069 4.5574541 -8.5 3.375 C-7.5409375 2.94960937 -6.581875 2.52421875 -5.59375 2.0859375 C-3 1 -3 1 0 0 Z " fill="#473A2F" transform="translate(177,238)"/>
<path d="M0 0 C0.66 0.33 1.32 0.66 2 1 C2 2.65 2 4.3 2 6 C4.33214148 7.20628008 6.49642139 8.1654738 9 9 C9.66 8.67 10.32 8.34 11 8 C11.66 8.66 12.32 9.32 13 10 C7.375 14 7.375 14 4 14 C3.01 14.185625 2.02 14.37125 1 14.5625 C-2 15 -2 15 -5 14 C-5 14.99 -5 15.98 -5 17 C-7.64 17 -10.28 17 -13 17 C-11.28484687 13.40634583 -9.65192754 9.99783113 -7 7 C-6.34 7 -5.68 7 -5 7 C-5 6.34 -5 5.68 -5 5 C-3.37446717 3.29319053 -1.70884005 1.62339805 0 0 Z " fill="#403226" transform="translate(83,82)"/>
<path d="M0 0 C1.258125 -0.04125 2.51625 -0.0825 3.8125 -0.125 C4.52019531 -0.14820313 5.22789063 -0.17140625 5.95703125 -0.1953125 C8 0 8 0 11 2 C13.62531524 2.16713569 13.62531524 2.16713569 16 2 C15.67 3.65 15.34 5.3 15 7 C15.99 7 16.98 7 18 7 C17.5 8.9375 17.5 8.9375 16 11 C13.30341548 11.68790422 10.7982981 11.81946464 8 12 C8 12.33 8 12.66 8 13 C0.57142857 13.28571429 0.57142857 13.28571429 -3 11 C-1.02 11 0.96 11 3 11 C2.34 10.67 1.68 10.34 1 10 C0.5859375 7.71484375 0.5859375 7.71484375 0.375 4.9375 C0.26285156 3.55884766 0.26285156 3.55884766 0.1484375 2.15234375 C0.07496094 1.08693359 0.07496094 1.08693359 0 0 Z " fill="#36271C" transform="translate(78,167)"/>
<path d="M0 0 C4.40788077 -0.01484135 8.68714298 0.48089632 13.0078125 1.3671875 C12.6778125 2.0271875 12.3478125 2.6871875 12.0078125 3.3671875 C12.9978125 3.6971875 13.9878125 4.0271875 15.0078125 4.3671875 C14.0078125 7.3671875 14.0078125 7.3671875 12.1875 8.31640625 C3.78534492 11.00794406 -2.85801836 10.97869233 -10.9921875 7.3671875 C-11.6521875 6.7071875 -12.3121875 6.0471875 -12.9921875 5.3671875 C-9.70522517 4.56765612 -8.28195558 4.27059814 -4.9921875 5.3671875 C-4.6828125 4.5421875 -4.3734375 3.7171875 -4.0546875 2.8671875 C-1.9921875 0.3671875 -1.9921875 0.3671875 0 0 Z " fill="#45382E" transform="translate(137.9921875,305.6328125)"/>
<path d="M0 0 C1.98 0.66 3.96 1.32 6 2 C6 1.34 6 0.68 6 0 C8.31 0.33 10.62 0.66 13 1 C13.33 1.99 13.66 2.98 14 4 C14.66 4 15.32 4 16 4 C15.67 4.94875 15.34 5.8975 15 6.875 C13.89840809 9.77062452 13.89840809 9.77062452 14 12 C14.99 12.33 15.98 12.66 17 13 C14.81666678 12.76730916 12.63451348 12.52772325 10.453125 12.27734375 C8.36658676 12.04144532 6.27724629 11.83054882 4.1875 11.625 C0.94666878 10.9895429 -0.59862469 10.20926528 -3 8 C-1.125 1.125 -1.125 1.125 0 0 Z " fill="#413327" transform="translate(90,238)"/>
<path d="M0 0 C2.83126928 4.24690392 2.53195697 8.01389589 2 13 C0.625 16.125 0.625 16.125 -1 18 C-1.66 18 -2.32 18 -3 18 C-3 18.66 -3 19.32 -3 20 C-3.99 20 -4.98 20 -6 20 C-8.45391569 16.31912647 -8.22802759 13.55644412 -8.125 9.3125 C-8.11597656 8.61060547 -8.10695312 7.90871094 -8.09765625 7.18554688 C-8.07413704 5.45688475 -8.03826713 3.72839855 -8 2 C-5.36 2 -2.72 2 0 2 C0 1.34 0 0.68 0 0 Z " fill="#3D2E21" transform="translate(143,17)"/>
<path d="M0 0 C1.9375 0.8125 1.9375 0.8125 4 2 C5.00204853 5.0061456 5.11083633 6.93142973 5.08229065 10.06828308 C5.07525116 11.11576218 5.06821167 12.16324127 5.06095886 13.24246216 C5.04801285 14.39116791 5.03506683 15.53987366 5.02172852 16.72338867 C5.01212097 17.9332695 5.00251343 19.14315033 4.99261475 20.38969421 C4.96526537 23.70764795 4.93336824 27.02549992 4.89946485 30.34338927 C4.86510454 33.81070728 4.83653613 37.27807284 4.80735779 40.74543762 C4.75122109 47.31149952 4.6898628 53.87750187 4.62663645 60.44349891 C4.55490963 67.91860289 4.48899176 75.39375454 4.42356598 82.86891592 C4.2888488 98.24600624 4.14682321 113.62302022 4 129 C3.67 129 3.34 129 3 129 C2.99576806 128.38008556 2.99153612 127.76017113 2.98717594 127.12147141 C2.88388845 112.04024588 2.77525352 96.95906918 2.66066074 81.87792587 C2.60537371 74.58481184 2.55189915 67.29169291 2.50268555 59.99853516 C2.45978832 53.64210727 2.41349639 47.28571474 2.36312145 40.92934155 C2.33656511 37.56344806 2.31171322 34.19756137 2.29092598 30.83162689 C2.26687211 27.07487597 2.23681857 23.31821828 2.20532227 19.56152344 C2.1995668 18.44446518 2.19381134 17.32740692 2.18788147 16.17649841 C2.17319824 14.64108147 2.17319824 14.64108147 2.15821838 13.074646 C2.15176583 12.18603756 2.14531328 11.29742912 2.1386652 10.38189316 C1.92267582 6.67177967 1.6699711 4.6699711 -1 2 C-0.67 1.34 -0.34 0.68 0 0 Z " fill="#453A30" transform="translate(258,163)"/>
<path d="M0 0 C0 0.66 0 1.32 0 2 C1.32 2.66 2.64 3.32 4 4 C-4.415 4.495 -4.415 4.495 -13 5 C-13.33 5.66 -13.66 6.32 -14 7 C-14.99 7 -15.98 7 -17 7 C-17.495 6.01 -17.495 6.01 -18 5 C-22.455 5.495 -22.455 5.495 -27 6 C-26.67 5.34 -26.34 4.68 -26 4 C-30.29 4 -34.58 4 -39 4 C-39 4.66 -39 5.32 -39 6 C-39.89203125 6.13277344 -40.7840625 6.26554687 -41.703125 6.40234375 C-42.87359375 6.57894531 -44.0440625 6.75554687 -45.25 6.9375 C-46.99023438 7.19853516 -46.99023438 7.19853516 -48.765625 7.46484375 C-51.87121692 7.90776579 -51.87121692 7.90776579 -54.296875 8.69140625 C-54.85890625 8.79324219 -55.4209375 8.89507812 -56 9 C-56.66 8.34 -57.32 7.68 -58 7 C-56.41913906 6.53321035 -54.83508407 6.0772415 -53.25 5.625 C-52.36828125 5.36976563 -51.4865625 5.11453125 -50.578125 4.8515625 C-40.51174481 2.45585193 -30.43455458 1.52067026 -20.125 0.875 C-18.206875 0.74544922 -18.206875 0.74544922 -16.25 0.61328125 C-10.82132805 0.2562809 -5.44228903 -0.04816185 0 0 Z " fill="#5F544B" transform="translate(242,274)"/>
<path d="M0 0 C0.99 0 1.98 0 3 0 C3 1.98 3 3.96 3 6 C2.01 6.495 2.01 6.495 1 7 C0.34 5.02 -0.32 3.04 -1 1 C-0.67 0.67 -0.34 0.34 0 0 Z M-11 6 C-10.34 6 -9.68 6 -9 6 C-9 6.66 -9 7.32 -9 8 C-8.030625 7.814375 -7.06125 7.62875 -6.0625 7.4375 C-4.5465625 7.2209375 -4.5465625 7.2209375 -3 7 C-2.67 7.33 -2.34 7.66 -2 8 C-1.01 7.67 -0.02 7.34 1 7 C2 8 2 8 2.09765625 9.84765625 C2.04882812 12.92382812 2.04882812 12.92382812 2 16 C1.360625 16.103125 0.72125 16.20625 0.0625 16.3125 C-0.618125 16.539375 -1.29875 16.76625 -2 17 C-2.33 17.99 -2.66 18.98 -3 20 C-5.99324263 18.9024777 -6.84610901 18.32317108 -8.25 15.375 C-8.4975 14.59125 -8.745 13.8075 -9 13 C-9.33 14.65 -9.66 16.3 -10 18 C-10.33 18 -10.66 18 -11 18 C-11 14.04 -11 10.08 -11 6 Z " fill="#33251A" transform="translate(67,134)"/>
<path d="M0 0 C2.16874252 0.50603992 3.99967627 0.99983813 6 2 C6.625 5.0625 6.625 5.0625 7 8 C4.92446352 8.5534764 3.15634036 9 1 9 C0.67 9.99 0.34 10.98 0 12 C-2.0625 13.1875 -2.0625 13.1875 -4 14 C-4.33 12.68 -4.66 11.36 -5 10 C-6.98 10.33 -8.96 10.66 -11 11 C-10.62403791 8.21788056 -10.32681541 6.4120716 -8.5625 4.1875 C-7 3 -7 3 -5 3 C-5 3.66 -5 4.32 -5 5 C-2.46326712 3.6446674 -2.46326712 3.6446674 0 2 C0 1.34 0 0.68 0 0 Z " fill="#3B2C20" transform="translate(204,45)"/>
<path d="M0 0 C4 0 4 0 5.5 1.4375 C5.995 1.953125 6.49 2.46875 7 3 C9.10332891 3.71447643 9.10332891 3.71447643 11 4 C10.67 4.99 10.34 5.98 10 7 C11.32 7.33 12.64 7.66 14 8 C14 8.99 14 9.98 14 11 C14.66 11.33 15.32 11.66 16 12 C13 12 10 12 7 12 C6.34 10.68 5.68 9.36 5 8 C2.52733235 8.34444881 2.52733235 8.34444881 0 9 C-0.33 9.66 -0.66 10.32 -1 11 C-1.99 11 -2.98 11 -4 11 C-3.835 10.2575 -3.67 9.515 -3.5 8.75 C-2.88074304 5.80993422 -2.88074304 5.80993422 -3 2 C-3.66 1.67 -4.32 1.34 -5 1 C-2.525 1.495 -2.525 1.495 0 2 C0 1.34 0 0.68 0 0 Z M10 12 C10 15 10 15 10 15 Z " fill="#3D2D21" transform="translate(181,75)"/>
<path d="M0 0 C1.02786621 0.00410889 2.05573242 0.00821777 3.11474609 0.01245117 C4.24525391 0.01438477 5.37576172 0.01631836 6.54052734 0.01831055 C8.32136719 0.03667969 8.32136719 0.03667969 10.13818359 0.05541992 C11.30220703 0.05606445 12.46623047 0.05670898 13.66552734 0.05737305 C19.70340719 0.08814367 25.54432612 0.32179994 31.51318359 1.24291992 C31.51318359 1.57291992 31.51318359 1.90291992 31.51318359 2.24291992 C29.53318359 2.24291992 27.55318359 2.24291992 25.51318359 2.24291992 C25.76068359 3.38760742 25.76068359 3.38760742 26.01318359 4.55541992 C26.51318359 7.24291992 26.51318359 7.24291992 26.51318359 10.24291992 C22.42875245 11.7745816 18.71862703 10.87373644 14.51318359 10.24291992 C14.84318359 9.58291992 15.17318359 8.92291992 15.51318359 8.24291992 C17.16318359 8.24291992 18.81318359 8.24291992 20.51318359 8.24291992 C18.20318359 7.58291992 15.89318359 6.92291992 13.51318359 6.24291992 C14.50318359 4.59291992 15.49318359 2.94291992 16.51318359 1.24291992 C6.11818359 1.73791992 6.11818359 1.73791992 -4.48681641 2.24291992 C-2.48681641 0.24291992 -2.48681641 0.24291992 0 0 Z " fill="#403125" transform="translate(24.48681640625,163.757080078125)"/>
<path d="M0 0 C0.33 1.65 0.66 3.3 1 5 C1.99 5 2.98 5 4 5 C4.33 4.34 4.66 3.68 5 3 C4.67 4.65 4.34 6.3 4 8 C8.29 8 12.58 8 17 8 C17 8.33 17 8.66 17 9 C8.98340366 10.12513633 1.07861415 10.09579384 -7 10 C-9 6 -9 6 -8.25 3.4375 C-6.26103457 -0.4409826 -4.19744838 0 0 0 Z " fill="#342518" transform="translate(233,166)"/>
<path d="M0 0 C0 2.31 0 4.62 0 7 C-0.66 7 -1.32 7 -2 7 C-2.66 8.32 -3.32 9.64 -4 11 C-4.33 10.34 -4.66 9.68 -5 9 C-6.65 9.66 -8.3 10.32 -10 11 C-10.66 9.02 -11.32 7.04 -12 5 C-10.68 4.67 -9.36 4.34 -8 4 C-9.66924071 0.95865509 -9.66924071 0.95865509 -12 0 C-7.70396929 -4.29603071 -4.96987735 -2.82379395 0 0 Z " fill="#44382D" transform="translate(221,31)"/>
<path d="M0 0 C0.66 0 1.32 0 2 0 C2.92172374 2.76517121 3.12375838 4.38443871 3.12025452 7.233078 C3.12162918 8.09544571 3.12300385 8.95781342 3.12442017 9.84631348 C3.12082489 10.78930298 3.11722961 11.73229248 3.11352539 12.70385742 C3.11367142 13.6991597 3.11381744 14.69446198 3.1139679 15.71992493 C3.11327032 19.01512825 3.10548511 22.31027529 3.09765625 25.60546875 C3.09579152 27.88804595 3.09436788 30.17062355 3.09336853 32.45320129 C3.08954767 38.46525169 3.07972104 44.47727798 3.06866455 50.48931885 C3.05844118 56.62243321 3.05386892 62.75555145 3.04882812 68.88867188 C3.03809841 80.92579185 3.02102714 92.96289392 3 105 C2.67 105 2.34 105 2 105 C1.9845388 103.13744316 1.9845388 103.13744316 1.96876526 101.23725891 C1.87103917 89.53943188 1.76830574 77.84165813 1.66066074 66.14391804 C1.6054797 60.12989942 1.55206734 54.1158759 1.50268555 48.10180664 C1.45497102 42.2986905 1.40262554 36.49563298 1.34705925 30.6925869 C1.32666784 28.47782029 1.30794948 26.26303763 1.29092598 24.04824257 C1.2668109 20.94787416 1.23676591 17.84761599 1.20532227 14.74731445 C1.1995668 13.83021698 1.19381134 12.91311951 1.18788147 11.9682312 C1.14042839 7.85599714 1.03320784 4.01008394 0 0 Z " fill="#46382D" transform="translate(25,171)"/>
<path d="M0 0 C-0.309375 0.9075 -0.61875 1.815 -0.9375 2.75 C-1.7272263 5.16563338 -2.42949297 7.52780285 -3 10 C-5.31 10.33 -7.62 10.66 -10 11 C-10.33 10.01 -10.66 9.02 -11 8 C-11.99 8.99 -12.98 9.98 -14 11 C-14.33 10.01 -14.66 9.02 -15 8 C-14.34 8 -13.68 8 -13 8 C-13.33 6.35 -13.66 4.7 -14 3 C-13.2575 2.71125 -12.515 2.4225 -11.75 2.125 C-9.06700264 1.10603845 -9.06700264 1.10603845 -7 -0.1875 C-4.35725581 -1.26111483 -2.69778766 -0.74938546 0 0 Z " fill="#39291D" transform="translate(184,239)"/>
<path d="M0 0 C8.91 0 17.82 0 27 0 C26.30260025 4.88179827 25.64344024 8.50793002 24 13 C23.67 12.34 23.34 11.68 23 11 C22.34 11 21.68 11 21 11 C20.67 10.34 20.34 9.68 20 9 C19.01 9.495 19.01 9.495 18 10 C16.4375 8.1875 16.4375 8.1875 15 6 C15.33 5.01 15.66 4.02 16 3 C17.65 2.67 19.3 2.34 21 2 C14.07 1.67 7.14 1.34 0 1 C0 0.67 0 0.34 0 0 Z " fill="#302117" transform="translate(231,163)"/>
<path d="M0 0 C0.86238281 -0.020625 1.72476563 -0.04125 2.61328125 -0.0625 C3.43699219 -0.06765625 4.26070312 -0.0728125 5.109375 -0.078125 C5.85670898 -0.0874707 6.60404297 -0.09681641 7.37402344 -0.10644531 C7.9930957 0.01118164 8.61216797 0.12880859 9.25 0.25 C11.55441554 3.70662331 11.50860135 5.19857881 11.25 9.25 C10.92 9.91 10.59 10.57 10.25 11.25 C8.93 10.59 7.61 9.93 6.25 9.25 C6.58 8.26 6.91 7.27 7.25 6.25 C6.486875 6.476875 5.72375 6.70375 4.9375 6.9375 C2.25 7.25 2.25 7.25 0.4375 5.9375 C-0.75 4.25 -0.75 4.25 -0.75 2.25 C-1.56210938 2.51103516 -1.56210938 2.51103516 -2.390625 2.77734375 C-5.23751809 3.34766505 -7.61718522 3.12137301 -10.5 2.8125 C-11.97726563 2.65974609 -11.97726563 2.65974609 -13.484375 2.50390625 C-14.23203125 2.42011719 -14.9796875 2.33632812 -15.75 2.25 C-15.75 1.92 -15.75 1.59 -15.75 1.25 C-10.47808454 0.18183412 -5.35606192 0.0326092 0 0 Z " fill="#6A5E54" transform="translate(220.75,201.75)"/>
<path d="M0 0 C0 1.65 0 3.3 0 5 C0.66 5 1.32 5 2 5 C2.33 4.34 2.66 3.68 3 3 C3 6.66666667 3 10.33333333 3 14 C-0.59836113 13.41103058 -2.45835011 12.00101444 -5.125 9.5625 C-5.80820313 8.94503906 -6.49140625 8.32757813 -7.1953125 7.69140625 C-8.48461379 6.48303513 -9.75050839 5.24949161 -11 4 C-10.01 4 -9.02 4 -8 4 C-7.67 3.01 -7.34 2.02 -7 1 C-4 0 -4 0 0 0 Z " fill="#45382C" transform="translate(188,82)"/>
<path d="M0 0 C0.80606689 0.04632568 1.61213379 0.09265137 2.44262695 0.14038086 C12.83225862 0.77229602 23.19896228 1.72705883 33.5625 2.6875 C34.0575 4.1725 34.0575 4.1725 34.5625 5.6875 C25.1809728 5.19577857 15.87177382 4.45124241 6.53466797 3.42285156 C-0.44670976 2.66197758 -7.427596 2.12204544 -14.4375 1.6875 C-14.4375 1.3575 -14.4375 1.0275 -14.4375 0.6875 C-9.54835461 -0.3397612 -4.95332571 -0.31228735 0 0 Z " fill="#53473E" transform="translate(84.4375,299.3125)"/>
<path d="M0 0 C6.28260706 -0.23268915 11.88019467 0.59545452 18 2 C18 2.33 18 2.66 18 3 C16.906875 3.226875 15.81375 3.45375 14.6875 3.6875 C10.87511789 4.65747195 10.87511789 4.65747195 9.0625 7.625 C8.711875 8.40875 8.36125 9.1925 8 10 C8.99 10.66 9.98 11.32 11 12 C6.48382401 12.07654536 2.40914783 12.10228696 -2 11 C-2 10.67 -2 10.34 -2 10 C-0.35 9.67 1.3 9.34 3 9 C2.34 8.34 1.68 7.68 1 7 C1.66 5.35 2.32 3.7 3 2 C2.01 1.34 1.02 0.68 0 0 Z " fill="#332419" transform="translate(61,231)"/>
<path d="M0 0 C2.28482276 1.77708437 3.64483259 3.28966518 4.9375 5.875 C5.03205111 9.0897376 3.55827078 11.25744342 2 14 C1.34 14 0.68 14 0 14 C0.66 12.35 1.32 10.7 2 9 C0.68 9 -0.64 9 -2 9 C-2.33 9.99 -2.66 10.98 -3 12 C-3.66 11.67 -4.32 11.34 -5 11 C-4.67 10.01 -4.34 9.02 -4 8 C-4.33 7.01 -4.66 6.02 -5 5 C-7.50447516 3.78130071 -7.50447516 3.78130071 -10 3 C-6.31049499 0.54032999 -4.44538905 -0.52921298 0 0 Z " fill="#46392E" transform="translate(266,88)"/>
<path d="M0 0 C1.32 0.66 2.64 1.32 4 2 C4 2.66 4 3.32 4 4 C4.66 4 5.32 4 6 4 C5.625 6.9375 5.625 6.9375 5 10 C2.29120665 11.35439668 -0.00933268 11.06501451 -3 11 C-3 10.34 -3 9.68 -3 9 C-5.475 8.01 -5.475 8.01 -8 7 C-7.01 5.35 -6.02 3.7 -5 2 C-4.67 2.66 -4.34 3.32 -4 4 C-2.68 2.68 -1.36 1.36 0 0 Z " fill="#3A2B22" transform="translate(112,216)"/>
<path d="M0 0 C0.66 0 1.32 0 2 0 C2.33 0.66 2.66 1.32 3 2 C3.66 1.67 4.32 1.34 5 1 C5.33 3.64 5.66 6.28 6 9 C3 9 3 9 0 8.3125 C-2.92869852 7.67067936 -2.92869852 7.67067936 -4.64453125 9.1875 C-6.32062403 11.42873069 -6.48664578 12.91571179 -6.6875 15.6875 C-6.78611328 16.89986328 -6.78611328 16.89986328 -6.88671875 18.13671875 C-6.92410156 18.75160156 -6.96148437 19.36648437 -7 20 C-7.33 20 -7.66 20 -8 20 C-8.66 14.39 -9.32 8.78 -10 3 C-9.67 3.99 -9.34 4.98 -9 6 C-8.01 5.67 -7.02 5.34 -6 5 C-6 5.66 -6 6.32 -6 7 C-5.34 7 -4.68 7 -4 7 C-3.8453125 6.071875 -3.8453125 6.071875 -3.6875 5.125 C-3 3 -3 3 0 1 C0 0.67 0 0.34 0 0 Z " fill="#4C3E33" transform="translate(217,122)"/>
<path d="M0 0 C1.9375 0.375 1.9375 0.375 4 1 C5.38550197 3.77100394 5.1877467 5.9334706 5 9 C4.01 10.485 4.01 10.485 3 12 C1.0546875 12.29296875 1.0546875 12.29296875 -1.125 12.1875 C-3.043125 12.0946875 -3.043125 12.0946875 -5 12 C-4.34 11.34 -3.68 10.68 -3 10 C-3.309375 9.13375 -3.309375 9.13375 -3.625 8.25 C-4 6 -4 6 -2.0625 2.75 C-1.381875 1.8425 -0.70125 0.935 0 0 Z " fill="#382B21" transform="translate(84,55)"/>
<path d="M0 0 C0 1.32 0 2.64 0 4 C-0.99 4.495 -0.99 4.495 -2 5 C-0.02 7.97 -0.02 7.97 2 11 C0 13 0 13 -2.625 13.125 C-3.40875 13.08375 -4.1925 13.0425 -5 13 C-5.33 12.34 -5.66 11.68 -6 11 C-5.67 10.34 -5.34 9.68 -5 9 C-5.66 9 -6.32 9 -7 9 C-7 6.36 -7 3.72 -7 1 C-4.53721199 -0.231394 -2.7204945 -0.07159196 0 0 Z " fill="#33251B" transform="translate(179,172)"/>
<path d="M0 0 C-0.66 0 -1.32 0 -2 0 C-2 0.66 -2 1.32 -2 2 C-2.66 2.66 -3.32 3.32 -4 4 C-4.165 4.845625 -4.33 5.69125 -4.5 6.5625 C-4.665 7.366875 -4.83 8.17125 -5 9 C-5.99 9.495 -5.99 9.495 -7 10 C-6.01 10.33 -5.02 10.66 -4 11 C-4.33 11.66 -4.66 12.32 -5 13 C-4.01 13.66 -3.02 14.32 -2 15 C-4.31 15.33 -6.62 15.66 -9 16 C-9 15.01 -9 14.02 -9 13 C-9.94726954 11.30280873 -10.94228261 9.63064764 -12 8 C-11.01 7.34 -10.02 6.68 -9 6 C-9 5.34 -9 4.68 -9 4 C-10.32 3.34 -11.64 2.68 -13 2 C-11.39935157 1.46845258 -9.79431126 0.95011647 -8.1875 0.4375 C-7.29417969 0.14746094 -6.40085938 -0.14257812 -5.48046875 -0.44140625 C-3 -1 -3 -1 0 0 Z " fill="#504236" transform="translate(188,169)"/>
<path d="M0 0 C0.33 0 0.66 0 1 0 C1 2.64 1 5.28 1 8 C1.66 8 2.32 8 3 8 C3 11.96 3 15.92 3 20 C-15.315 19.505 -15.315 19.505 -34 19 C-34 18.67 -34 18.34 -34 18 C-29.49764405 17.97527641 -24.99532764 17.95712881 -20.49291992 17.94506836 C-18.9613374 17.9400404 -17.42975967 17.93321716 -15.89819336 17.92456055 C-13.69643978 17.91242771 -11.49474967 17.90675633 -9.29296875 17.90234375 C-8.60849167 17.89718246 -7.92401459 17.89202118 -7.21879578 17.88670349 C-4.19093758 17.8863464 -1.89849858 18.03383381 1 19 C0.7525 17.3603125 0.7525 17.3603125 0.5 15.6875 C-0.16622112 10.46094841 -0.08701543 5.2595992 0 0 Z " fill="#9F9791" transform="translate(55,144)"/>
<path d="M0 0 C0.66 0.33 1.32 0.66 2 1 C1.91288331 6.31411788 1.91288331 6.31411788 1 9 C-2.375 11.125 -2.375 11.125 -6 12 C-6.99 11.34 -7.98 10.68 -9 10 C-9.1875 6.875 -9.1875 6.875 -9 4 C-9.66 3.67 -10.32 3.34 -11 3 C-7.23375329 1.74458443 -5.62811066 2.62938042 -2 4 C-2.66 4.66 -3.32 5.32 -4 6 C-3.01 6.33 -2.02 6.66 -1 7 C-0.67 4.69 -0.34 2.38 0 0 Z " fill="#37281D" transform="translate(208,98)"/>
<path d="M0 0 C0.66 0 1.32 0 2 0 C2 0.66 2 1.32 2 2 C2.66 2 3.32 2 4 2 C3.79375 3.093125 3.5875 4.18625 3.375 5.3125 C2.59653475 9.0838401 2.59653475 9.0838401 5 12 C3 14 3 14 0.375 14.125 C-0.40875 14.08375 -1.1925 14.0425 -2 14 C-3.15569347 10.53291959 -2.79137066 9.75271995 -1.5625 6.4375 C-0.36174502 3.29385482 -0.36174502 3.29385482 0 0 Z " fill="#382A1D" transform="translate(164,288)"/>
<path d="M0 0 C3.465 1.485 3.465 1.485 7 3 C6.375 5.375 6.375 5.375 5 8 C1.875 9.3125 1.875 9.3125 -1 10 C-1.66 9.34 -2.32 8.68 -3 8 C-1.125 1.125 -1.125 1.125 0 0 Z M6 0 C6.66 0 7.32 0 8 0 C7.67 0.99 7.34 1.98 7 3 C6.67 2.01 6.34 1.02 6 0 Z " fill="#39291E" transform="translate(90,238)"/>
<path d="M0 0 C0.99 0 1.98 0 3 0 C3 1.32 3 2.64 3 4 C3.33 3.34 3.66 2.68 4 2 C5.9375 2.3125 5.9375 2.3125 8 3 C9 6 9 6 8.0625 8.1875 C7.5365625 9.0846875 7.5365625 9.0846875 7 10 C6.360625 9.814375 5.72125 9.62875 5.0625 9.4375 C4.0415625 9.2209375 4.0415625 9.2209375 3 9 C2.67 9.33 2.34 9.66 2 10 C1.34 10 0.68 10 0 10 C0 6.7 0 3.4 0 0 Z " fill="#3A2B1D" transform="translate(135,261)"/>
<path d="M0 0 C3.4375 0.8125 3.4375 0.8125 5.4375 3.8125 C4.7775 3.8125 4.1175 3.8125 3.4375 3.8125 C3.1075 4.8025 2.7775 5.7925 2.4375 6.8125 C0.7875 6.8125 -0.8625 6.8125 -2.5625 6.8125 C-2.5625 6.1525 -2.5625 5.4925 -2.5625 4.8125 C-4.5425 5.8025 -4.5425 5.8025 -6.5625 6.8125 C-6.75 4.4375 -6.75 4.4375 -6.5625 1.8125 C-3.5625 -0.1875 -3.5625 -0.1875 0 0 Z " fill="#3D2E21" transform="translate(64.5625,28.1875)"/>
<path d="M0 0 C0 0.33 0 0.66 0 1 C-4.0527516 1.98248524 -7.83861737 2.08159574 -12 2 C-12 2.66 -12 3.32 -12 4 C-12.89203125 4.13277344 -13.7840625 4.26554687 -14.703125 4.40234375 C-15.87359375 4.57894531 -17.0440625 4.75554687 -18.25 4.9375 C-19.99023438 5.19853516 -19.99023438 5.19853516 -21.765625 5.46484375 C-24.87121692 5.90776579 -24.87121692 5.90776579 -27.296875 6.69140625 C-27.85890625 6.79324219 -28.4209375 6.89507812 -29 7 C-29.66 6.34 -30.32 5.68 -31 5 C-20.79606074 1.98702581 -10.69275366 -0.41125976 0 0 Z " fill="#6A6057" transform="translate(215,276)"/>
<path d="M0 0 C2 3 2 3 1.75 4.9375 C0.97936717 7.05674028 0.0643413 9.01322958 -1 11 C-1.66 10.67 -2.32 10.34 -3 10 C-2.67 8.35 -2.34 6.7 -2 5 C-2.66 4.67 -3.32 4.34 -4 4 C-4.66 4.66 -5.32 5.32 -6 6 C-6.99 6.33 -7.98 6.66 -9 7 C-9.33 5.02 -9.66 3.04 -10 1 C-9.01 1.495 -9.01 1.495 -8 2 C-7.34 1.67 -6.68 1.34 -6 1 C-3.90951951 0.41205236 -2.17634453 0 0 0 Z " fill="#382A1E" transform="translate(77,103)"/>
<path d="M0 0 C0.66 0 1.32 0 2 0 C2 1.98 2 3.96 2 6 C1.34 6 0.68 6 0 6 C-0.66 7.32 -1.32 8.64 -2 10 C-2.33 9.34 -2.66 8.68 -3 8 C-4.65 8.66 -6.3 9.32 -8 10 C-8.33 8.68 -8.66 7.36 -9 6 C-2.25 2 -2.25 2 0 2 C0 1.34 0 0.68 0 0 Z " fill="#3A2A1D" transform="translate(219,32)"/>
<path d="M0 0 C2.97 0.495 2.97 0.495 6 1 C5.01 1.495 5.01 1.495 4 2 C3.731875 2.804375 3.46375 3.60875 3.1875 4.4375 C2 7 2 7 -0.5 8.375 C-3 9 -3 9 -5 8 C-5 6.35 -5 4.7 -5 3 C-4.01 3 -3.02 3 -2 3 C-1.34 2.01 -0.68 1.02 0 0 Z " fill="#443529" transform="translate(52,232)"/>
<path d="M0 0 C0.9075 0.103125 1.815 0.20625 2.75 0.3125 C2.75 0.6425 2.75 0.9725 2.75 1.3125 C1.1 1.6425 -0.55 1.9725 -2.25 2.3125 C-2.58 3.9625 -2.91 5.6125 -3.25 7.3125 C-3.91 7.3125 -4.57 7.3125 -5.25 7.3125 C-4.92 8.9625 -4.59 10.6125 -4.25 12.3125 C-2.6 12.6425 -0.95 12.9725 0.75 13.3125 C1.08 14.3025 1.41 15.2925 1.75 16.3125 C-5.35526316 14.25986842 -5.35526316 14.25986842 -7.25 11.3125 C-7.82417415 7.53935556 -7.51139046 5.77496004 -5.625 2.4375 C-3.25 0.3125 -3.25 0.3125 0 0 Z " fill="#4E4339" transform="translate(17.25,87.6875)"/>
<path d="M0 0 C1.03125 0.00322266 2.0625 0.00644531 3.125 0.00976562 C4.74535156 0.02233398 4.74535156 0.02233398 6.3984375 0.03515625 C8.03039062 0.04192383 8.03039062 0.04192383 9.6953125 0.04882812 C12.38807539 0.06063849 15.08072938 0.07710847 17.7734375 0.09765625 C17.7734375 0.42765625 17.7734375 0.75765625 17.7734375 1.09765625 C11.8334375 1.09765625 5.8934375 1.09765625 -0.2265625 1.09765625 C-0.5565625 3.07765625 -0.8865625 5.05765625 -1.2265625 7.09765625 C-2.2165625 7.09765625 -3.2065625 7.09765625 -4.2265625 7.09765625 C-4.3503125 6.29328125 -4.4740625 5.48890625 -4.6015625 4.66015625 C-4.9109375 3.39171875 -4.9109375 3.39171875 -5.2265625 2.09765625 C-5.8865625 1.76765625 -6.5465625 1.43765625 -7.2265625 1.09765625 C-4.66933021 -0.1809599 -2.85919148 -0.01570984 0 0 Z " fill="#423327" transform="translate(238.2265625,163.90234375)"/>
<path d="M0 0 C1.93681161 -0.08107583 3.8745934 -0.13922475 5.8125 -0.1875 C6.89144531 -0.22230469 7.97039062 -0.25710937 9.08203125 -0.29296875 C12 0 12 0 13.875 1.28125 C15.69066581 4.05518388 15.18182749 6.78771435 15 10 C13.02 10.99 13.02 10.99 11 12 C12 9 12 9 13 8 C12.34 7.34 11.68 6.68 11 6 C9.66666667 4.66666667 8.33333333 3.33333333 7 2 C4.67724823 1.59952556 2.34260643 1.2602896 0 1 C0 0.67 0 0.34 0 0 Z " fill="#8A8178" transform="translate(217,229)"/>
<path d="M0 0 C0.99 0.99 1.98 1.98 3 3 C2.67 3.66 2.34 4.32 2 5 C-0.0625 5.625 -0.0625 5.625 -2 6 C-1.125 1.125 -1.125 1.125 0 0 Z M2 0 C2.99 0 3.98 0 5 0 C5.33 2.31 5.66 4.62 6 7 C4 4 4 4 4 2 C3.34 2 2.68 2 2 2 C2 1.34 2 0.68 2 0 Z M-8 2 C-7.566875 2.474375 -7.13375 2.94875 -6.6875 3.4375 C-4.97690387 5.23686957 -4.97690387 5.23686957 -2 6 C-2 6.99 -2 7.98 -2 9 C-3.65 8.67 -5.3 8.34 -7 8 C-7.33 6.02 -7.66 4.04 -8 2 Z " fill="#302217" transform="translate(215,120)"/>
<path d="M0 0 C-0.99 0.495 -0.99 0.495 -2 1 C-2.46751788 3.35599235 -2.46751788 3.35599235 -2.625 6.0625 C-2.69976562 6.98160156 -2.77453125 7.90070313 -2.8515625 8.84765625 C-2.90054688 9.55792969 -2.94953125 10.26820313 -3 11 C-4.32 11.33 -5.64 11.66 -7 12 C-7.625 9.625 -7.625 9.625 -8 7 C-7.34 6.34 -6.68 5.68 -6 5 C-6.3185177 2.89179203 -6.3185177 2.89179203 -7 1 C-4.53721199 -0.231394 -2.7204945 -0.07159196 0 0 Z " fill="#39291E" transform="translate(186,209)"/>
<path d="M0 0 C0.75 1.75 0.75 1.75 1 4 C-0.5625 6.25 -0.5625 6.25 -3 8 C-6.125 8.375 -6.125 8.375 -9 8 C-9.66 7.34 -10.32 6.68 -11 6 C-7.16674383 3.29417212 -4.67461851 2.67386382 0 3 C0 2.01 0 1.02 0 0 Z " fill="#6C625A" transform="translate(118,248)"/>
<path d="M0 0 C0.33 0 0.66 0 1 0 C1 1.65 1 3.3 1 5 C1.99 4.67 2.98 4.34 4 4 C4 4.99 4 5.98 4 7 C6.97 7 9.94 7 13 7 C13 7.66 13 8.32 13 9 C9.90826248 10.54586876 7.40570448 10.29359521 4 10 C1.5625 8.375 1.5625 8.375 0 6 C-0.25 2.75 -0.25 2.75 0 0 Z " fill="#695E55" transform="translate(227,104)"/>
<path d="M0 0 C2.31 0 4.62 0 7 0 C7.0825 0.61875 7.165 1.2375 7.25 1.875 C7.81258459 4.18437567 7.81258459 4.18437567 10.0625 5.25 C10.701875 5.4975 11.34125 5.745 12 6 C12 6.33 12 6.66 12 7 C7.50003317 7.44117322 5.65388883 7.52867608 2.0625 4.625 C0 2 0 2 0 0 Z " fill="#584D43" transform="translate(73,61)"/>
<path d="M0 0 C0.66 1.32 1.32 2.64 2 4 C2.66 3.01 3.32 2.02 4 1 C4.22223194 3.74086056 4.34781139 5.43963721 2.875 7.8125 C0.22464043 9.49106106 -1.93246424 9.20450238 -5 9 C-5 8.34 -5 7.68 -5 7 C-4.01 7 -3.02 7 -2 7 C-2.33 5.68 -2.66 4.36 -3 3 C-2.01 2.67 -1.02 2.34 0 2 C0 1.34 0 0.68 0 0 Z " fill="#302118" transform="translate(227,232)"/>
<path d="M0 0 C1.88361553 2.82542329 2.31902686 3.81059318 2.6875 7 C2.77386719 7.680625 2.86023438 8.36125 2.94921875 9.0625 C3 11 3 11 2 14 C-0.95664519 15.4783226 -3.74229737 15.06032783 -7 15 C-3.25 13 -3.25 13 -1 13 C-0.67 8.71 -0.34 4.42 0 0 Z " fill="#6C6158" transform="translate(209,151)"/>
<path d="M0 0 C3 1 3 1 5 4 C4.75 7.625 4.75 7.625 4 11 C3.01 11.495 3.01 11.495 2 12 C2 10.68 2 9.36 2 8 C1.01 7.34 0.02 6.68 -1 6 C-0.67 4.02 -0.34 2.04 0 0 Z " fill="#5A4F46" transform="translate(48,100)"/>
<path d="M0 0 C0.33 0.66 0.66 1.32 1 2 C1.66 2 2.32 2 3 2 C3.33 3.98 3.66 5.96 4 8 C2.35 7.67 0.7 7.34 -1 7 C-1 7.66 -1 8.32 -1 9 C-1.66 9 -2.32 9 -3 9 C-3.36923077 3.46153846 -3.36923077 3.46153846 -1.5 1.125 C-1.005 0.75375 -0.51 0.3825 0 0 Z " fill="#42352B" transform="translate(163,244)"/>
<path d="M0 0 C0.33 0.66 0.66 1.32 1 2 C1.33 1.34 1.66 0.68 2 0 C3.32 0.66 4.64 1.32 6 2 C5.34 2.66 4.68 3.32 4 4 C4.75150023 7.27773504 4.75150023 7.27773504 8 9 C6.02 9 4.04 9 2 9 C2 8.34 2 7.68 2 7 C-0.475 6.01 -0.475 6.01 -3 5 C-2.01 3.35 -1.02 1.7 0 0 Z " fill="#433429" transform="translate(107,218)"/>
<path d="M0 0 C5.23880078 0.55145271 9.97350697 1.42922093 15 3 C13.35 4.32 11.7 5.64 10 7 C8.68 6.34 7.36 5.68 6 5 C6.33 4.34 6.66 3.68 7 3 C5.68 3 4.36 3 3 3 C3 2.34 3 1.68 3 1 C2.01 0.67 1.02 0.34 0 0 Z " fill="#746A61" transform="translate(85,206)"/>
<path d="M0 0 C0 0.66 0 1.32 0 2 C-2.64738916 3.4606285 -3.89448334 4 -7 4 C-7 4.66 -7 5.32 -7 6 C-10.465 7.485 -10.465 7.485 -14 9 C-14 7.68 -14 6.36 -14 5 C-12.75264433 4.3490741 -11.50198168 3.70448331 -10.25 3.0625 C-9.55390625 2.70285156 -8.8578125 2.34320313 -8.140625 1.97265625 C-5.41232415 0.7329721 -3.00198386 0 0 0 Z " fill="#544940" transform="translate(243,96)"/>
<path d="M0 0 C0.66 0.66 1.32 1.32 2 2 C1.67 2.33 1.34 2.66 1 3 C0.92851801 4.35243917 0.91600546 5.70834367 0.9375 7.0625 C0.958125 8.361875 0.97875 9.66125 1 11 C-1.86724686 10.42655063 -2.8614515 10.1385485 -5 8 C-4.61121812 4.98694043 -3.73543126 3.60314689 -2 1 C-1.34 1.33 -0.68 1.66 0 2 C0 1.34 0 0.68 0 0 Z " fill="#4D4136" transform="translate(190,85)"/>
<path d="M0 0 C0 0.33 0 0.66 0 1 C-6.71162938 1.88021369 -13.23405981 2.11381955 -20 2 C-20 1.34 -20 0.68 -20 0 C-13.11422188 -1.01593448 -6.90188971 -0.83854735 0 0 Z " fill="#62564B" transform="translate(182,302)"/>
<path d="M0 0 C5.4389165 -0.21755666 9.87080814 -0.10428384 15 2 C13.78125 3.5390625 13.78125 3.5390625 12 5 C9.84375 4.9609375 9.84375 4.9609375 7.5 4.375 C6.7265625 4.19710937 5.953125 4.01921875 5.15625 3.8359375 C2.8073584 2.92531648 1.63031823 1.89158718 0 0 Z M0 2 C0.66 2 1.32 2 2 2 C2 2.66 2 3.32 2 4 C1.34 4 0.68 4 0 4 C0 3.34 0 2.68 0 2 Z " fill="#3B2B22" transform="translate(66,205)"/>
<path d="M0 0 C1.98 0.66 3.96 1.32 6 2 C6.33 3.65 6.66 5.3 7 7 C5.02 7.99 5.02 7.99 3 9 C2.71125 8.38125 2.4225 7.7625 2.125 7.125 C1.06279958 4.86674235 1.06279958 4.86674235 -1 3 C-0.67 2.01 -0.34 1.02 0 0 Z " fill="#3A2A1D" transform="translate(256,91)"/>
<path d="M0 0 C1.32 0.33 2.64 0.66 4 1 C2.68 1.33 1.36 1.66 0 2 C0 1.34 0 0.68 0 0 Z M-5 1 C-2.525 1.495 -2.525 1.495 0 2 C0.12375 2.804375 0.2475 3.60875 0.375 4.4375 C0.684375 5.7059375 0.684375 5.7059375 1 7 C1.66 7.33 2.32 7.66 3 8 C2.01 8.33 1.02 8.66 0 9 C-0.33 9.66 -0.66 10.32 -1 11 C-1.99 11 -2.98 11 -4 11 C-3.835 10.2575 -3.67 9.515 -3.5 8.75 C-2.88074304 5.80993422 -2.88074304 5.80993422 -3 2 C-3.66 1.67 -4.32 1.34 -5 1 Z " fill="#36271B" transform="translate(181,75)"/>
<path d="M0 0 C0.99 0.33 1.98 0.66 3 1 C2.34 2.32 1.68 3.64 1 5 C0.34 5 -0.32 5 -1 5 C-1 5.99 -1 6.98 -1 8 C0.98 8 2.96 8 5 8 C5 8.33 5 8.66 5 9 C2.36 9.33 -0.28 9.66 -3 10 C-2.67 9.01 -2.34 8.02 -2 7 C-2.99 6.67 -3.98 6.34 -5 6 C-4.34 5.67 -3.68 5.34 -3 5 C-2.34786708 2.97536745 -2.34786708 2.97536745 -2 1 C-1.67 1.33 -1.34 1.66 -1 2 C-0.67 1.34 -0.34 0.68 0 0 Z " fill="#5B4E42" transform="translate(190,173)"/>
<path d="M0 0 C4.10447392 0.51776621 5.95699523 2.64627444 8.75 5.5625 C9.94882813 6.80193359 9.94882813 6.80193359 11.171875 8.06640625 C11.77515625 8.70449219 12.3784375 9.34257813 13 10 C12.01 11.485 12.01 11.485 11 13 C9.14453125 10.70507812 9.14453125 10.70507812 7.2890625 8.41015625 C6.0333609 6.86733563 6.0333609 6.86733563 4 6 C4 5.01 4 4.02 4 3 C2.68 2.67 1.36 2.34 0 2 C0 1.34 0 0.68 0 0 Z " fill="#4C4037" transform="translate(191,80)"/>
<path d="M0 0 C1.77503906 0.03480469 1.77503906 0.03480469 3.5859375 0.0703125 C5.36871094 0.09738281 5.36871094 0.09738281 7.1875 0.125 C8.10273437 0.14820313 9.01796875 0.17140625 9.9609375 0.1953125 C9.9609375 0.5253125 9.9609375 0.8553125 9.9609375 1.1953125 C4.5159375 1.6903125 4.5159375 1.6903125 -1.0390625 2.1953125 C-1.3690625 3.8453125 -1.6990625 5.4953125 -2.0390625 7.1953125 C-3.0290625 6.8653125 -4.0190625 6.5353125 -5.0390625 6.1953125 C-5.3690625 6.8553125 -5.6990625 7.5153125 -6.0390625 8.1953125 C-5.01212382 0.32211593 -5.01212382 0.32211593 0 0 Z " fill="#968D85" transform="translate(52.0390625,228.8046875)"/>
<path d="M0 0 C1.46366342 0.39753821 2.9208935 0.81881384 4.375 1.25 C5.18710938 1.48203125 5.99921875 1.7140625 6.8359375 1.953125 C9 3 9 3 11 7 C6.71 6.01 2.42 5.02 -2 4 C-1.34 2.68 -0.68 1.36 0 0 Z " fill="#60564B" transform="translate(92,179)"/>
<path d="M0 0 C0 0.33 0 0.66 0 1 C1.98 1.66 3.96 2.32 6 3 C6 3.33 6 3.66 6 4 C4.58344207 4.0272415 3.16672955 4.04650467 1.75 4.0625 C0.56664062 4.07990234 0.56664062 4.07990234 -0.640625 4.09765625 C-2.90691002 4.00385306 -4.8288895 3.63241063 -7 3 C-6.67 2.01 -6.34 1.02 -6 0 C-3.50907189 -1.24546405 -2.58919267 -0.7767578 0 0 Z " fill="#2F2215" transform="translate(179,298)"/>
<path d="M0 0 C5.53846154 0.61538462 5.53846154 0.61538462 7.875 2.5625 C8.431875 3.2740625 8.431875 3.2740625 9 4 C6.21136993 5.39431504 4.07921132 5.25660094 1 5 C0.34 4.01 -0.32 3.02 -1 2 C-0.67 1.34 -0.34 0.68 0 0 Z " fill="#554B41" transform="translate(162,251)"/>
<path d="M0 0 C0 0.99 0 1.98 0 3 C1.32 3.66 2.64 4.32 4 5 C3 6 3 6 0.0625 6.125 C-3 6 -3 6 -5 5 C-5 3.68 -5 2.36 -5 1 C-2 0 -2 0 0 0 Z " fill="#3B2F26" transform="translate(166,221)"/>
<path d="M0 0 C1.42944945 2.35438733 2.08661261 3.48032433 1.625 6.25 C1.41875 6.8275 1.2125 7.405 1 8 C1.99 8.33 2.98 8.66 4 9 C1.36 9.33 -1.28 9.66 -4 10 C-2.8905928 6.51329166 -1.73662334 3.22515763 0 0 Z " fill="#47392F" transform="translate(66,104)"/>
<path d="M0 0 C3.48619623 0.29881682 5.04636125 1.03527486 7.875 3.1875 C10 6 10 6 9.8125 9.3125 C9.544375 10.199375 9.27625 11.08625 9 12 C8.34 11.01 7.68 10.02 7 9 C7.66 9 8.32 9 9 9 C9 8.34 9 7.68 9 7 C8.34 7 7.68 7 7 7 C7 6.34 7 5.68 7 5 C6.21625 4.690625 5.4325 4.38125 4.625 4.0625 C2 3 2 3 0 2 C0 1.34 0 0.68 0 0 Z " fill="#817872" transform="translate(109,213)"/>
<path d="M0 0 C1.98 0.66 3.96 1.32 6 2 C7.25 8.625 7.25 8.625 5 12 C4.16180842 10.37750059 3.3295884 8.75191503 2.5 7.125 C2.0359375 6.22007813 1.571875 5.31515625 1.09375 4.3828125 C0 2 0 2 0 0 Z " fill="#675B53" transform="translate(199,108)"/>
<path d="M0 0 C6.28260706 -0.23268915 11.88019467 0.59545452 18 2 C18 2.33 18 2.66 18 3 C14.7 3 11.4 3 8 3 C8 3.66 8 4.32 8 5 C7.34 5 6.68 5 6 5 C6 3.68 6 2.36 6 1 C4.02 1 2.04 1 0 1 C0 0.67 0 0.34 0 0 Z " fill="#271A13" transform="translate(61,231)"/>
<path d="M0 0 C-0.61277612 2.96175123 -1.25372522 4.38058783 -3 7 C-3.33 6.01 -3.66 5.02 -4 4 C-4.99 3.67 -5.98 3.34 -7 3 C-7 3.66 -7 4.32 -7 5 C-8.65 5 -10.3 5 -12 5 C-8.24532309 1.94063363 -4.91886939 0 0 0 Z " fill="#71675E" transform="translate(175,211)"/>
<path d="M0 0 C2.3125 -0.25 2.3125 -0.25 5 0 C6.8125 2 6.8125 2 8 4 C5.6875 5.125 5.6875 5.125 3 6 C2.01 5.34 1.02 4.68 0 4 C0 2.68 0 1.36 0 0 Z " fill="#34261B" transform="translate(130,185)"/>
<path d="M0 0 C1 3 1 3 0.00390625 5.48046875 C-0.47175781 6.37378906 -0.94742188 7.26710938 -1.4375 8.1875 C-1.91058594 9.08855469 -2.38367188 9.98960938 -2.87109375 10.91796875 C-3.24363281 11.60503906 -3.61617188 12.29210937 -4 13 C-4.33 13 -4.66 13 -5 13 C-5 11.35 -5 9.7 -5 8 C-5.99 7.67 -6.98 7.34 -8 7 C-7.34 6.34 -6.68 5.68 -6 5 C-6 5.66 -6 6.32 -6 7 C-5.34 7 -4.68 7 -4 7 C-2.68 4.69 -1.36 2.38 0 0 Z " fill="#61574E" transform="translate(80,106)"/>
<path d="M0 0 C0.33 0.99 0.66 1.98 1 3 C1.66 3.33 2.32 3.66 3 4 C1.25 6.0625 1.25 6.0625 -1 8 C-3.25 7.75 -3.25 7.75 -5 7 C-1.125 1.125 -1.125 1.125 0 0 Z " fill="#5E524B" transform="translate(75,91)"/>
<path d="M0 0 C2.93200474 2.85276137 5.64315404 5.65079784 8 9 C7.67 9.66 7.34 10.32 7 11 C6.01 11 5.02 11 4 11 C0 4.5 0 4.5 0 0 Z " fill="#716760" transform="translate(71,34)"/>
<path d="M0 0 C2.875 -0.125 2.875 -0.125 6 0 C6.66 0.66 7.32 1.32 8 2 C7.34 3.32 6.68 4.64 6 6 C3.69 5.01 1.38 4.02 -1 3 C-0.67 2.01 -0.34 1.02 0 0 Z " fill="#382B20" transform="translate(80,234)"/>
<path d="M0 0 C2.1640625 0.0234375 2.1640625 0.0234375 4.625 0.375 C5.85089844 0.54128906 5.85089844 0.54128906 7.1015625 0.7109375 C7.72804688 0.80632812 8.35453125 0.90171875 9 1 C7.68 1.33 6.36 1.66 5 2 C5 2.66 5 3.32 5 4 C2.01758453 4.77321882 -0.97580475 5.41196203 -4 6 C-2.84826645 3.53199953 -1.95216435 1.95216435 0 0 Z " fill="#665A4D" transform="translate(75,232)"/>
<path d="M0 0 C0.66 0.33 1.32 0.66 2 1 C-0.90673575 5.22797927 -0.90673575 5.22797927 -3 7 C-6.8125 7.375 -6.8125 7.375 -10 7 C-7.20283196 3.70921407 -3.80471422 1.93694542 0 0 Z " fill="#61564D" transform="translate(156,178)"/>
<path d="M0 0 C0 0.99 0 1.98 0 3 C-1.670625 3.2165625 -1.670625 3.2165625 -3.375 3.4375 C-6.82142047 3.78372035 -6.82142047 3.78372035 -9 5 C-8.3125 2.5625 -8.3125 2.5625 -7 0 C-4.11143484 -1.01099781 -2.76813517 -1.38406758 0 0 Z " fill="#36271D" transform="translate(118,248)"/>
<path d="M0 0 C0.66 0.33 1.32 0.66 2 1 C1.030625 1.28875 0.06125 1.5775 -0.9375 1.875 C-4.10664203 2.64214682 -4.10664203 2.64214682 -5 5 C-5.66 4.67 -6.32 4.34 -7 4 C-7.33 5.32 -7.66 6.64 -8 8 C-8.66 8 -9.32 8 -10 8 C-10 7.34 -10 6.68 -10 6 C-10.66 5.67 -11.32 5.34 -12 5 C-10.04578965 4.13644222 -8.08648653 3.28440066 -6.125 2.4375 C-5.03445312 1.96183594 -3.94390625 1.48617187 -2.8203125 0.99609375 C-1.88960937 0.66738281 -0.95890625 0.33867187 0 0 Z " fill="#6A6056" transform="translate(177,238)"/>
<path d="M0 0 C4 4.625 4 4.625 4 8 C2.35 8 0.7 8 -1 8 C-1.33 6.68 -1.66 5.36 -2 4 C-1.34 4 -0.68 4 0 4 C0 2.68 0 1.36 0 0 Z " fill="#584D43" transform="translate(210,99)"/>
<path d="M0 0 C1.71484375 1.546875 1.71484375 1.546875 3 3 C1.41753293 3.08153933 -0.16616273 3.13943557 -1.75 3.1875 C-3.07257813 3.23970703 -3.07257813 3.23970703 -4.421875 3.29296875 C-7.44671583 2.94923684 -8.75583602 1.99772541 -11 0 C-7.16455058 -1.38076179 -3.92847503 -0.85712183 0 0 Z " fill="#53473E" transform="translate(128,64)"/>
<path d="M0 0 C2.31 0 4.62 0 7 0 C6.34 1.32 5.68 2.64 5 4 C1.7 3.67 -1.6 3.34 -5 3 C-5 2.67 -5 2.34 -5 2 C-3.35 1.67 -1.7 1.34 0 1 C0 0.67 0 0.34 0 0 Z " fill="#33261B" transform="translate(211,231)"/>
<path d="M0 0 C0 0.33 0 0.66 0 1 C-7.26 0.67 -14.52 0.34 -22 0 C-22 -0.33 -22 -0.66 -22 -1 C-14.16296501 -1.89635331 -7.61399923 -2.19386419 0 0 Z " fill="#776D63" transform="translate(65,177)"/>
<path d="M0 0 C1.32 0.33 2.64 0.66 4 1 C3.3125 3.4375 3.3125 3.4375 2 6 C-0.4375 6.9375 -0.4375 6.9375 -3 7 C-3.99 6.34 -4.98 5.68 -6 5 C-4.35 5 -2.7 5 -1 5 C-0.67 3.35 -0.34 1.7 0 0 Z " fill="#50463E" transform="translate(259,292)"/>
<path d="M0 0 C-1.65 1.65 -3.3 3.3 -5 5 C-5.33 4.34 -5.66 3.68 -6 3 C-6.66 3 -7.32 3 -8 3 C-8 3.66 -8 4.32 -8 5 C-8.99 5.33 -9.98 5.66 -11 6 C-11.66 5.34 -12.32 4.68 -13 4 C-4.738041 -0.59225513 -4.738041 -0.59225513 0 0 Z " fill="#271B12" transform="translate(159,291)"/>
<path d="M0 0 C1.67542976 0.28604898 3.34385343 0.61781233 5 1 C4.34 2.65 3.68 4.3 3 6 C1.68 5.34 0.36 4.68 -1 4 C-1 1 -1 1 0 0 Z " fill="#5B5247" transform="translate(17,292)"/>
<path d="M0 0 C5.75 0.875 5.75 0.875 8 2 C8.33 1.34 8.66 0.68 9 0 C9 0.99 9 1.98 9 3 C9.99 3.33 10.98 3.66 12 4 C8.69564916 5.12377697 6.9493138 4.89554742 3.75 3.5625 C3.04359375 3.27503906 2.3371875 2.98757812 1.609375 2.69140625 C1.07828125 2.46324219 0.5471875 2.23507813 0 2 C0 1.34 0 0.68 0 0 Z " fill="#5C524C" transform="translate(98,221)"/>
<path d="M0 0 C0.33 0.99 0.66 1.98 1 3 C1.66 3 2.32 3 3 3 C4.39151652 7.79300133 3.68662689 12.15135782 3 17 C2.67 17 2.34 17 2 17 C1.34 11.39 0.68 5.78 0 0 Z " fill="#837A70" transform="translate(207,125)"/>
<path d="M0 0 C0.66 0.33 1.32 0.66 2 1 C2 2.32 2 3.64 2 5 C-1.96 6.98 -1.96 6.98 -6 9 C-6.33 8.34 -6.66 7.68 -7 7 C-6.34 7 -5.68 7 -5 7 C-5 6.34 -5 5.68 -5 5 C-3.37446717 3.29319053 -1.70884005 1.62339805 0 0 Z " fill="#675D54" transform="translate(83,82)"/>
<path d="M0 0 C1.65 0.33 3.3 0.66 5 1 C4.34 3.31 3.68 5.62 3 8 C2.01 8 1.02 8 0 8 C0.33 7.34 0.66 6.68 1 6 C0.34 5.67 -0.32 5.34 -1 5 C-0.34 5 0.32 5 1 5 C1.33 3.68 1.66 2.36 2 1 C1.34 0.67 0.68 0.34 0 0 Z " fill="#57483D" transform="translate(115,288)"/>
<path d="M0 0 C0.66 0.66 1.32 1.32 2 2 C1.9765625 4.6015625 1.9765625 4.6015625 1.625 7.625 C1.51414062 8.62789062 1.40328125 9.63078125 1.2890625 10.6640625 C1.19367188 11.43492187 1.09828125 12.20578125 1 13 C0.67 13 0.34 13 0 13 C-0.103125 12.21625 -0.20625 11.4325 -0.3125 10.625 C-0.77595022 7.66954819 -0.77595022 7.66954819 -4 6 C-3.34 6 -2.68 6 -2 6 C-1.34 4.02 -0.68 2.04 0 0 Z " fill="#60564D" transform="translate(70,126)"/>
<path d="M0 0 C0.99 1.485 0.99 1.485 2 3 C2.99 2.67 3.98 2.34 5 2 C5.66 3.65 6.32 5.3 7 7 C6.01 7.33 5.02 7.66 4 8 C4 7.34 4 6.68 4 6 C3.01 6.33 2.02 6.66 1 7 C0 6 0 6 -0.0625 2.9375 C-0.041875 1.968125 -0.02125 0.99875 0 0 Z " fill="#3A2D21" transform="translate(57,31)"/>
<path d="M0 0 C1.32 0.66 2.64 1.32 4 2 C4 2.99 4 3.98 4 5 C3.34 5.66 2.68 6.32 2 7 C2 6.34 2 5.68 2 5 C0.68 4.67 -0.64 4.34 -2 4 C-1.34 2.68 -0.68 1.36 0 0 Z " fill="#5D5047" transform="translate(113,243)"/>
<path d="M0 0 C0.66 0.66 1.32 1.32 2 2 C-0.64 3.65 -3.28 5.3 -6 7 C-6.33 6.34 -6.66 5.68 -7 5 C-6.67 4.34 -6.34 3.68 -6 3 C-5.34 3 -4.68 3 -4 3 C-4 2.34 -4 1.68 -4 1 C-2.125 0.375 -2.125 0.375 0 0 Z " fill="#382A1F" transform="translate(102,72)"/>
<path d="M0 0 C1.32 0 2.64 0 4 0 C4.33 1.98 4.66 3.96 5 6 C4.01 6.66 3.02 7.32 2 8 C0.23537317 4.91190305 0 3.76687864 0 0 Z " fill="#302419" transform="translate(190,59)"/>
<path d="M0 0 C0.33 0.99 0.66 1.98 1 3 C0.34 3.66 -0.32 4.32 -1 5 C-2.9453125 4.7578125 -2.9453125 4.7578125 -5.125 4.125 C-5.84945312 3.92132813 -6.57390625 3.71765625 -7.3203125 3.5078125 C-7.87460938 3.34023438 -8.42890625 3.17265625 -9 3 C-5.73209435 0.82139623 -3.91954654 0 0 0 Z " fill="#61574F" transform="translate(164,288)"/>
<path d="M0 0 C1.65 0.33 3.3 0.66 5 1 C5 1.99 5 2.98 5 4 C4.01 4 3.02 4 2 4 C2 4.66 2 5.32 2 6 C1.34 6 0.68 6 0 6 C0 5.34 0 4.68 0 4 C-0.66 3.67 -1.32 3.34 -2 3 C-1.34 2.01 -0.68 1.02 0 0 Z " fill="#574B40" transform="translate(109,286)"/>
<path d="M0 0 C0.625 2.3125 0.625 2.3125 1 5 C0.01 6.485 0.01 6.485 -1 8 C-1.33 6.35 -1.66 4.7 -2 3 C-3.65 2.67 -5.3 2.34 -7 2 C-7 1.67 -7 1.34 -7 1 C-2.25 0 -2.25 0 0 0 Z " fill="#392C21" transform="translate(170,215)"/>
<path d="M0 0 C0 0.66 0 1.32 0 2 C-0.66 2 -1.32 2 -2 2 C-2.28875 2.804375 -2.5775 3.60875 -2.875 4.4375 C-4 7 -4 7 -6 8 C-6 5.69 -6 3.38 -6 1 C-4 0 -4 0 0 0 Z " fill="#5F524A" transform="translate(211,53)"/>
<path d="M0 0 C0 1.65 0 3.3 0 5 C-2.97 4.505 -2.97 4.505 -6 4 C-6.33 3.01 -6.66 2.02 -7 1 C-4.50935112 0.31292445 -2.62113708 0 0 0 Z " fill="#52473C" transform="translate(183,282)"/>
<path d="M0 0 C3.4375 0.8125 3.4375 0.8125 7 2 C7.33 2.99 7.66 3.98 8 5 C4.37 4.34 0.74 3.68 -3 3 C-2.01 2.01 -1.02 1.02 0 0 Z " fill="#6E655B" transform="translate(81,243)"/>
<path d="M0 0 C0.99 0.33 1.98 0.66 3 1 C2.34 1 1.68 1 1 1 C1 2.32 1 3.64 1 5 C-2.96 4.67 -6.92 4.34 -11 4 C-11 3.67 -11 3.34 -11 3 C-10.28972656 2.95101562 -9.57945313 2.90203125 -8.84765625 2.8515625 C-7.46900391 2.73941406 -7.46900391 2.73941406 -6.0625 2.625 C-5.14597656 2.55539063 -4.22945313 2.48578125 -3.28515625 2.4140625 C-2.15400391 2.20910156 -2.15400391 2.20910156 -1 2 C-0.67 1.34 -0.34 0.68 0 0 Z " fill="#665A52" transform="translate(77,240)"/>
<path d="M0 0 C0.66 0.33 1.32 0.66 2 1 C1.67 2.32 1.34 3.64 1 5 C-0.98 5 -2.96 5 -5 5 C-5 4.34 -5 3.68 -5 3 C-4.34 3 -3.68 3 -3 3 C-3 2.34 -3 1.68 -3 1 C-2.01 0.67 -1.02 0.34 0 0 Z " fill="#3C2F23" transform="translate(213,209)"/>
<path d="M0 0 C0.99 0.33 1.98 0.66 3 1 C3.125 6.75 3.125 6.75 2 9 C0.68 8.34 -0.64 7.68 -2 7 C-1.01 6.67 -0.02 6.34 1 6 C0.67 4.02 0.34 2.04 0 0 Z " fill="#5C544B" transform="translate(229,204)"/>
<path d="M0 0 C-0.66 0 -1.32 0 -2 0 C-2 0.66 -2 1.32 -2 2 C-4.40545638 3.20272819 -5.94996953 3.10071472 -8.625 3.0625 C-9.85089844 3.04896484 -9.85089844 3.04896484 -11.1015625 3.03515625 C-12.04128906 3.01775391 -12.04128906 3.01775391 -13 3 C-4.32367973 -1.44122658 -4.32367973 -1.44122658 0 0 Z " fill="#6A6157" transform="translate(188,169)"/>
<path d="M0 0 C-4.95 2.97 -4.95 2.97 -10 6 C-9 2 -9 2 -6.6875 0.1875 C-4 -1 -4 -1 0 0 Z " fill="#6C635B" transform="translate(108,84)"/>
<path d="M0 0 C0.33 0 0.66 0 1 0 C1.64165788 5.26159459 0.20577001 7.68592849 -2.90625 11.6796875 C-3.2671875 12.11539063 -3.628125 12.55109375 -4 13 C-5 10 -5 10 -3.6875 7.3125 C-3.130625 6.549375 -2.57375 5.78625 -2 5 C-1.34 5 -0.68 5 0 5 C0 3.35 0 1.7 0 0 Z " fill="#63584E" transform="translate(221,33)"/>
<path d="M0 0 C0.66 0 1.32 0 2 0 C2 0.66 2 1.32 2 2 C3.98 2 5.96 2 8 2 C8 2.66 8 3.32 8 4 C5.6875 4.6875 5.6875 4.6875 3 5 C1.1875 3.6875 1.1875 3.6875 0 2 C0 1.34 0 0.68 0 0 Z " fill="#554A42" transform="translate(167,221)"/>
<path d="M0 0 C1.32 0.33 2.64 0.66 4 1 C3.67 1.99 3.34 2.98 3 4 C2.34 4 1.68 4 1 4 C0.67 4.99 0.34 5.98 0 7 C-0.66 6.67 -1.32 6.34 -2 6 C-1.34 4.02 -0.68 2.04 0 0 Z " fill="#413327" transform="translate(176,79)"/>
<path d="M0 0 C3.93673644 1.31224548 6.22719294 2.91910327 9 6 C8.01 6.33 7.02 6.66 6 7 C5.34 5.68 4.68 4.36 4 3 C2.68 3 1.36 3 0 3 C0 2.01 0 1.02 0 0 Z " fill="#766B63" transform="translate(181,72)"/>
<path d="M0 0 C0.66 0 1.32 0 2 0 C2 1.98 2 3.96 2 6 C1.34 6 0.68 6 0 6 C-0.66 7.32 -1.32 8.64 -2 10 C-2.33 9.34 -2.66 8.68 -3 8 C-2.0337499 5.98347806 -1.03291676 3.98320018 0 2 C0 1.34 0 0.68 0 0 Z " fill="#302418" transform="translate(219,32)"/>
<path d="M0 0 C1.32064453 0.11794922 1.32064453 0.11794922 2.66796875 0.23828125 C3.72951172 0.46064453 3.72951172 0.46064453 4.8125 0.6875 C5.1425 1.3475 5.4725 2.0075 5.8125 2.6875 C4.06284642 2.74179959 2.31270213 2.78042823 0.5625 2.8125 C-0.41203125 2.83570313 -1.3865625 2.85890625 -2.390625 2.8828125 C-5.2071498 2.68612781 -6.79699036 2.13318916 -9.1875 0.6875 C-5.96812073 -0.31058262 -3.34448248 -0.33099014 0 0 Z " fill="#776E67" transform="translate(29.1875,297.3125)"/>
<path d="M0 0 C2 1 2 1 3 3 C6.02934491 3.65772428 6.02934491 3.65772428 9 4 C9 4.33 9 4.66 9 5 C7.741875 5.020625 6.48375 5.04125 5.1875 5.0625 C4.47980469 5.07410156 3.77210937 5.08570313 3.04296875 5.09765625 C1 5 1 5 -2 4 C-2 3.34 -2 2.68 -2 2 C-1.34 2 -0.68 2 0 2 C0 1.34 0 0.68 0 0 Z " fill="#5F534A" transform="translate(51,210)"/>
<path d="M0 0 C0.99 0.33 1.98 0.66 3 1 C3 3.31 3 5.62 3 8 C1.68 7.34 0.36 6.68 -1 6 C-0.67 4.02 -0.34 2.04 0 0 Z " fill="#53473E" transform="translate(48,100)"/>
<path d="M0 0 C0.33 0 0.66 0 1 0 C1.33 1.65 1.66 3.3 2 5 C2.66 5 3.32 5 4 5 C4 6.98 4 8.96 4 11 C2 9.4375 2 9.4375 0 7 C-0.25 3.25 -0.25 3.25 0 0 Z " fill="#787068" transform="translate(56,32)"/>
<path d="M0 0 C3.375 0.3125 3.375 0.3125 7 1 C7.66 1.99 8.32 2.98 9 4 C4.545 3.01 4.545 3.01 0 2 C0 1.34 0 0.68 0 0 Z " fill="#7E7770" transform="translate(61,28)"/>
<path d="M0 0 C1.99097846 2.98646769 2.94124926 5.59687262 4 9 C3.01 8.67 2.02 8.34 1 8 C1 7.01 1 6.02 1 5 C0.01 4.67 -0.98 4.34 -2 4 C-1.34 2.68 -0.68 1.36 0 0 Z " fill="#62574D" transform="translate(215,107)"/>
<path d="M0 0 C0.66 0.33 1.32 0.66 2 1 C1.1875 2.9375 1.1875 2.9375 0 5 C-0.99 5.33 -1.98 5.66 -3 6 C-3.33 4.68 -3.66 3.36 -4 2 C-2.125 0.9375 -2.125 0.9375 0 0 Z " fill="#33291E" transform="translate(88,94)"/>
<path d="M0 0 C-1.32 0.33 -2.64 0.66 -4 1 C-3.67 1.99 -3.34 2.98 -3 4 C-5.31 3.67 -7.62 3.34 -10 3 C-6.1865669 0.45771127 -4.5252563 -0.11908569 0 0 Z " fill="#756D64" transform="translate(266,88)"/>
<path d="M0 0 C0.66 0.66 1.32 1.32 2 2 C1.01 2.495 1.01 2.495 0 3 C-0.33 3.99 -0.66 4.98 -1 6 C-2.32 6 -3.64 6 -5 6 C-5 4.68 -5 3.36 -5 2 C-3.35 1.34 -1.7 0.68 0 0 Z " fill="#4B3F35" transform="translate(160,72)"/>
<path d="M0 0 C1 3 1 3 -0.25 5.6875 C-0.8275 6.450625 -1.405 7.21375 -2 8 C-2.99 8 -3.98 8 -5 8 C-3.62845496 5.04590299 -2.01136276 2.55991624 0 0 Z " fill="#6E6660" transform="translate(208,32)"/>
<path d="M0 0 C0.33 0.99 0.66 1.98 1 3 C-3.29 2.67 -7.58 2.34 -12 2 C-12 1.67 -12 1.34 -12 1 C-10.56274129 0.83126522 -9.12518162 0.66509263 -7.6875 0.5 C-6.88699219 0.4071875 -6.08648437 0.314375 -5.26171875 0.21875 C-3 0 -3 0 0 0 Z " fill="#857C73" transform="translate(118,302)"/>
<path d="M0 0 C2.475 0.495 2.475 0.495 5 1 C4.67 2.32 4.34 3.64 4 5 C2.68 5.33 1.36 5.66 0 6 C0.66 4.35 1.32 2.7 2 1 C1.34 0.67 0.68 0.34 0 0 Z " fill="#33251B" transform="translate(112,288)"/>
<path d="M0 0 C1.32 0.66 2.64 1.32 4 2 C2.68 3.32 1.36 4.64 0 6 C-0.33 5.01 -0.66 4.02 -1 3 C-1.66 2.67 -2.32 2.34 -3 2 C-2.01 1.34 -1.02 0.68 0 0 Z " fill="#5B5047" transform="translate(121,178)"/>
<path d="M0 0 C1.9375 0.8125 1.9375 0.8125 4 2 C4.33 2.99 4.66 3.98 5 5 C4.34 5.66 3.68 6.32 3 7 C3 6.01 3 5.02 3 4 C1.68 3.34 0.36 2.68 -1 2 C-0.67 1.34 -0.34 0.68 0 0 Z " fill="#4E433A" transform="translate(258,163)"/>
<path d="M0 0 C0.99 0.33 1.98 0.66 3 1 C3.75 2.9375 3.75 2.9375 4 5 C3.67 5.66 3.34 6.32 3 7 C1.68 6.67 0.36 6.34 -1 6 C-0.67 4.02 -0.34 2.04 0 0 Z " fill="#625246" transform="translate(59,120)"/>
<path d="M0 0 C1.4540625 0.0309375 1.4540625 0.0309375 2.9375 0.0625 C2.9375 0.3925 2.9375 0.7225 2.9375 1.0625 C1.2875 1.3925 -0.3625 1.7225 -2.0625 2.0625 C-2.3925 3.3825 -2.7225 4.7025 -3.0625 6.0625 C-4.0525 5.7325 -5.0425 5.4025 -6.0625 5.0625 C-3.64893617 0.07446809 -3.64893617 0.07446809 0 0 Z " fill="#736860" transform="translate(17.0625,87.9375)"/>
<path d="M0 0 C2.31 0.33 4.62 0.66 7 1 C3.375 4 3.375 4 0 4 C0 2.68 0 1.36 0 0 Z " fill="#34261A" transform="translate(47,235)"/>
<path d="M0 0 C3.4375 0.8125 3.4375 0.8125 7 2 C7.33 2.99 7.66 3.98 8 5 C4.5625 4.1875 4.5625 4.1875 1 3 C0.67 2.01 0.34 1.02 0 0 Z " fill="#766E68" transform="translate(105,185)"/>
<path d="M0 0 C1.32 0 2.64 0 4 0 C4.33 1.32 4.66 2.64 5 4 C3.35 4.33 1.7 4.66 0 5 C0 3.35 0 1.7 0 0 Z " fill="#3F3126" transform="translate(175,179)"/>
<path d="M0 0 C1.125 1.75 1.125 1.75 2 4 C1.125 6.25 1.125 6.25 0 8 C-1.125 6.25 -1.125 6.25 -2 4 C-1.125 1.75 -1.125 1.75 0 0 Z " fill="#514236" transform="translate(66,104)"/>
<path d="M0 0 C2.0625 0.4375 2.0625 0.4375 4 1 C3.01 1 2.02 1 1 1 C1.33 2.65 1.66 4.3 2 6 C1.01 6 0.02 6 -1 6 C-1.042721 4.33388095 -1.04063832 2.66617115 -1 1 C-0.67 0.67 -0.34 0.34 0 0 Z " fill="#322319" transform="translate(15,89)"/>
<path d="M0 0 C1.65 0 3.3 0 5 0 C5 0.99 5 1.98 5 3 C4.01 3 3.02 3 2 3 C1.67 3.66 1.34 4.32 1 5 C0.67 3.35 0.34 1.7 0 0 Z " fill="#392E24" transform="translate(262,89)"/>
<path d="M0 0 C1.32 0.66 2.64 1.32 4 2 C1.1875 3.5625 1.1875 3.5625 -2 5 C-2.99 4.67 -3.98 4.34 -5 4 C-3.35 2.68 -1.7 1.36 0 0 Z " fill="#483E34" transform="translate(90,77)"/>
<path d="M0 0 C0.33 0.66 0.66 1.32 1 2 C2.32 2 3.64 2 5 2 C5 2.66 5 3.32 5 4 C2.69 4 0.38 4 -2 4 C-1.34 2.68 -0.68 1.36 0 0 Z " fill="#42362C" transform="translate(195,64)"/>
<path d="M0 0 C0.99 0.33 1.98 0.66 3 1 C3 1.99 3 2.98 3 4 C1.02 4.99 1.02 4.99 -1 6 C-1.042721 4.33388095 -1.04063832 2.66617115 -1 1 C-0.67 0.67 -0.34 0.34 0 0 Z " fill="#463B31" transform="translate(59,29)"/>
</svg>
